{
.appVersion = "3436";
.formatVersion = 3;
DisplayStrings = (
"FFANTFifieSIONAickINDERTERinorinhnznWombok motown? ojDrire

Hot & LYLVSexy",
E,
"@",
"฿",
"›",
"]",
"What is the s/a.ss01 dquare root of 5?",
"Coniditons apply*",
"→←",
"÷",
"6",
"¥",
"≠",
"+×",
"+",
"{hello",
"}",
"{",
78.com,
TYPEFACE,
j,
8FrfwafiphfrDGijkqdcala,
"/t.ss05",
fifi,
"ff/f_i.liga",
"/f_f_i.liga",
tmartfan,
"tt/t_f.liga",
"/t_f.liga rop",
"/t_f.liga",
"/f.ss05/t.ss05/f.ss05/t.ss05",
"/f.ss05/f.ss05",
"/f.ss05/f.ss05",
"/f_t.liga For",
"/t.ss05/t_f.liga.ss05",
"/t.ss05/t_f.liga.ss05",
"bra/t_f.liga.ss05 h",
"/t_f.liga.ss05",
t,
"f/t_t.liga",
"/t_t.liga",
"/t_t.liga.ss05",
"/f_f.liga.ss05",
"/f_f_i.liga.ss05",
"/f_t.liga.ss05",
"/f_t.liga",
"yobzb?!!!!",
"1670's inspired",
"/one.ss06",
RUvula,
m,
u,
Umbrella,
"/U.ss03",
k,
"data & science",
"8",
"480",
"3:2356745689",
"75°",
"¢",
"Hello©YouoY,es,"
);
axes = (
{
name = Weight;
tag = wght;
},
{
hidden = 1;
name = Italic;
tag = ital;
}
);
date = "2026-01-11 06:13:19 +0000";
familyName = "Television Sans";
featurePrefixes = (
{
automatic = 1;
code = "languagesystem DFLT dflt;

languagesystem latn dflt;
languagesystem latn MAH;
";
name = Languagesystems;
}
);
features = (
{
automatic = 1;
code = "feature locl;
feature c2sc;
feature smcp;
feature fwid;
feature ss01;
feature ss02;
feature ss03;
feature ss04;
feature ss05;
feature ss06;
";
tag = aalt;
},
{
automatic = 1;
code = "script latn;
language MAH;
lookup locl_latn_0 {
	sub commaaccentcomb by commaaccentcomb.loclMAH;
} locl_latn_0;
";
tag = locl;
},
{
automatic = 1;
code = "sub I by i.sc;
";
tag = c2sc;
},
{
automatic = 1;
code = "sub i by i.sc;
";
tag = smcp;
},
{
automatic = 1;
code = "lookupflag IgnoreMarks;
sub f f i by f_f_i.liga;
sub f f by f_f.liga;
sub f i by f_i.liga;
sub f j by f_j.liga;
sub f t by f_t.liga;
sub t f by t_f.liga;
sub t t by t_t.liga;
";
tag = liga;
},
{
automatic = 1;
code = "sub grave by grave.full;
";
tag = fwid;
},
{
automatic = 1;
code = "sub a by a.ss01;
";

glyphs = (
{
glyphname = A;
kernLeft = A;
kernRight = A;
lastChange = "2026-02-12 00:25:31 +0000";
layers = (
{
layerId = m01;
shapes = (
{
closed = 1;
nodes = (
(173,115,l),
(519,115,l),
(519,269,l),
(173,269,l)
);
},
{
pos = (8,0);
ref = AAngle;
}
);
width = 692;
},
{
layerId = m002;
shapes = (
{
closed = 1;
nodes = (
(87,136,l),
(433,136,l),
(433,196,l),
(87,196,l)
);
},
{
pos = (-2,0);
ref = AAngle;
}
);
width = 546;
}
);
unicode = 65;
},
{
glyphname = B;
kernLeft = "0";
kernRight = "0";
lastChange = "2026-02-10 22:44:32 +0000";
layers = (
{
layerId = m01;
shapes = (
{
closed = 1;
nodes = (
(317,303,l),
(427,303,o),
(516,392,o),
(516,502,cs),
(516,612,o),
(427,701,o),
(317,701,c),
(44,700,l),
(44,303,l)
);
},
{
closed = 1;
nodes = (
(213,557,l),
(262,557,ls),
(309,557,o),
(347,524,o),
(347,484,c),
(347,443,o),
(309,409,o),
(262,409,c),
(213,409,l)
);
},
{
closed = 1;
nodes = (
(44,1,l),
(317,0,l),
(438,0,o),
(544,97,o),
(536,219,cs),
(529,327,o),
(438,398,o),
(317,398,c),
(44,398,l)
);
},
{
closed = 1;
nodes = (
(213,292,l),
(283,292,ls),
(329,292,o),
(367,259,o),
(367,219,c),
(367,178,o),
(329,144,o),
(283,144,cs),
(213,144,l)
);
}
);
width = 558.5;
},
{
layerId = m002;
shapes = (
{
closed = 1;
nodes = (
(237,343,l),
(340,343,o),
(416,421,o),
(416,525,cs),
(416,629,o),
(326,701,o),
(197,701,c),
(75,700,l),
(75,343,l)
);
},
{
closed = 1;
nodes = (
(135,641,l),
(195,641,ls),
(284,641,o),
(357,583,o),
(356,515,cs),
(355,450,o),
(278,390,o),
(195,390,c),
(135,390,l)
);
},
{
closed = 1;
nodes = (
(75,0,l),
(237,0,l),
(363,0,o),
(456,77,o),
(456,182,cs),
(456,287,o),
(355,378,o),
(237,378,c),
(75,378,l)
);
},
{
closed = 1;
nodes = (
(135,330,l),
(216,330,ls),
(318,330,o),
(396,266,o),
(396,182,c),
(396,108,o),
(334,61,o),
(237,61,cs),
(135,61,l)
);
}
);
width = 493.5;
}
);
metricLeft = H;
metricRight = "=H/2";
unicode = 66;
},
{
glyphname = C;
kernLeft = O;
kernRight = C;
lastChange = "2026-02-11 00:03:53 +0000";
layers = (
{
layerId = m01;
shapes = (
{
closed = 1;
nodes = (
(383,-12,o),
(448,-5,o),
(485,7,c),
(485,191,l),
(456,173,o),
(421,162,o),
(384,162,cs),
(280,162,o),
(196,246,o),
(196,350,cs),
(196,454,o),
(280,538,o),
(384,538,cs),
(421,538,o),
(455,527,o),
(485,509,c),
(485,692,l),
(439,707,o),
(374,712,o),
(345,712,cs),
(179,712,o),
(22,550,o),
(22,350,cs),
(22,162,o),
(142,-12,o),
(342,-12,cs)
);
}
);
width = 529;
},
{
layerId = m002;
shapes = (
{
closed = 1;
nodes = (
(406.5,-12,o),
(454.5,-8,o),
(500.5,7,c),
(507.5,67,l),
(459.5,51,o),
(409.5,48,o),
(359.5,48,cs),
(193.5,48,o),
(97.5,184,o),
(97.5,350,cs),
(97.5,510,o),
(200.5,634,o),
(359.5,652,cs),
(410.5,658,o),
(462.5,650,o),
(507.5,625,c),
(500.5,692,l),
(455.5,707,o),
(408.5,713,o),
(360.5,712,cs),
(161.5,706,o),
(37.5,549,o),
(37.5,350,cs),
(37.5,149,o),
(156.5,-12,o),
(357.5,-12,cs)
);
}
);
width = 582.5;
}
);
metricLeft = "=H/2";
metricRight = "=H";
unicode = 67;
},
{
glyphname = D;
kernLeft = H;
kernRight = O;
lastChange = "2026-02-11 23:58:17 +0000";
layers = (
{
layerId = m01;
shapes = (
{
closed = 1;
nodes = (
(418,-1,o),
(591,156,o),
(591,350,cs),
(591,543,o),
(418,700,o),
(205,700,c),
(44,700,l),
(44,350,l),
(44,0,l),
(205,-1,l)
);
},
{
closed = 1;
nodes = (
(209,526,l),
(315,526,o),
(417,447,o),
(417,350,c),
(417,252,o),
(315,173,o),
(209,173,c)
);
}
);
width = 613;
},
{
layerId = m002;
shapes = (
{
closed = 1;
nodes = (
(411,-1,o),
(559,156,o),
(559,350,cs),
(559,543,o),
(411,700,o),
(151,700,c),
(75,700,l),
(75,350,l),
(75,0,l),
(151,-1,l)
);
},
{
closed = 1;
nodes = (
(135,640,l),
(329,640,o),
(499,553,o),
(499,351,c),
(499,146,o),
(329,59,o),
(135,59,c)
);
}
);
width = 596.5;
}
);
metricLeft = H;
metricRight = "=H/2";
unicode = 68;
},
{
glyphname = E;
kernLeft = E;
kernRight = E;
lastChange = "2026-02-10 22:44:32 +0000";
layers = (
{
layerId = m01;
shapes = (
{
closed = 1;
nodes = (
(145,281,l),
(381,281,l),
(381,435,l),
(145,435,l)
);
},
{
closed = 1;
nodes = (
(45,539,l),
(461,539,l),
(441,701,l),
(45,701,l)
);
},
{
closed = 1;
nodes = (
(451,1,l),
(471,163,l),
(45,163,l),
(45,1,l)
);
},
{
closed = 1;
nodes = (
(44,0,l),
(218,0,l),
(218,700,l),
(44,700,l)
);
}
);
width = 494;
},
{
layerId = m002;
shapes = (
{
closed = 1;
nodes = (
(119,328,l),
(345,328,l),
(345,388,l),
(119,388,l)
);
},
{
closed = 1;
nodes = (
(89,641,l),
(415,641,l),
(405,701,l),
(89,701,l)
);
},
{
closed = 1;
nodes = (
(415,1,l),
(425,61,l),
(89,61,l),
(89,1,l)
);
},
{
closed = 1;
nodes = (
(75,0,l),
(135,0,l),
(135,700,l),
(75,700,l)
);
}
);
width = 439;
}
);
metricLeft = H;
unicode = 69;
},
{
glyphname = F;
kernLeft = F;
kernRight = F;
lastChange = "2026-02-12 00:26:01 +0000";
layers = (
{
layerId = m01;
shapes = (
{
closed = 1;
nodes = (
(45,539,l),
(443,539,l),
(463,701,l),
(45,701,l)
);
},
{
closed = 1;
nodes = (
(44,0,l),
(218,0,l),
(218,700,l),
(44,700,l)
);
},
{
closed = 1;
nodes = (
(145,281,l),
(383,281,l),
(383,435,l),
(145,435,l)
);
}
);
width = 473;
},
{
layerId = m002;
shapes = (
{
closed = 1;
nodes = (
(89,641,l),
(384,641,l),
(394,701,l),
(89,701,l)
);
},
{
closed = 1;
nodes = (
(75,0,l),
(135,0,l),
(135,700,l),
(75,700,l)
);
},
{
closed = 1;
nodes = (
(119,338,l),
(335,338,l),
(335,398,l),
(119,398,l)
);
}
);
width = 404;
}
);
metricLeft = H;
unicode = 70;
},
{
glyphname = G;
kernLeft = O;
kernRight = G;
lastChange = "2026-02-11 02:55:03 +0000";
layers = (
{
layerId = m01;
shapes = (
{
closed = 1;
nodes = (
(331,287,l),
(617,287,l),
(617,449,l),
(351,449,l)
);
},
{
closed = 1;
nodes = (
(475,-12,o),
(559,20,o),
(628,73,c),
(576,350,l),
(576,297,o),
(554,249,o),
(519,215,cs),
(485,182,o),
(439,162,o),
(388,162,cs),
(284,162,o),
(200,246,o),
(200,350,cs),
(200,454,o),
(284,538,o),
(388,538,cs),
(433,538,o),
(473,523,o),
(506,497,c),
(551,673,l),
(502,698,o),
(447,712,o),
(388,712,cs),
(188,712,o),
(26,550,o),
(26,350,cs),
(26,150,o),
(188,-12,o),
(388,-12,cs)
);
},
{
closed = 1;
nodes = (
(454,1,l),
(628,73,l),
(628,449,l),
(454,449,l)
);
}
);
width = 675;
},
{
layerId = m002;
shapes = (
{
closed = 1;
nodes = (
(314,338,l),
(580,338,l),
(580,398,l),
(324,398,l)
);
},
{
closed = 1;
nodes = (
(487,-12,o),
(546,18,o),
(584,63,c),
(584,269,l),
(584,216,o),
(575,178,o),
(568,143,cs),
(557,91,o),
(495,48,o),
(401,48,cs),
(234,48,o),
(99,183,o),
(99,350,cs),
(99,517,o),
(234,652,o),
(401,652,cs),
(473,652,o),
(518,629,o),
(540,619,c),
(564,673,l),
(515,698,o),
(460,712,o),
(401,712,cs),
(201,712,o),
(39,550,o),
(39,350,cs),
(39,150,o),
(201,-12,o),
(401,-12,cs)
);
},
{
closed = 1;
nodes = (
(524,21,l),
(584,62,l),
(584,398,l),
(524,398,l)
);
}
);
width = 647;
}
);
metricLeft = G;
metricRight = G;
unicode = 71;
},
{
glyphname = H;
kernLeft = "0";
kernRight = "0";
lastChange = "2026-02-10 22:44:32 +0000";
layers = (
{
layerId = m01;
shapes = (
{
closed = 1;
nodes = (
(44,0,l),
(218,0,l),
(218,700,l),
(44,700,l)
);
},
{
closed = 1;
nodes = (
(384,0,l),
(558,0,l),
(558,700,l),
(384,700,l)
);
},
{
closed = 1;
nodes = (
(182,291,l),
(408,291,l),
(408,445,l),
(182,445,l)
);
}
);
width = 602;
},
{
layerId = m002;
shapes = (
{
closed = 1;
nodes = (
(75,0,l),
(139,0,l),
(139,700,l),
(75,700,l)
);
},
{
closed = 1;
nodes = (
(415,0,l),
(479,0,l),
(479,700,l),
(415,700,l)
);
},
{
closed = 1;
nodes = (
(127,338,l),
(429,338,l),
(429,398,l),
(127,398,l)
);
}
);
width = 554;
}
);
metricLeft = H;
metricRight = H;
unicode = 72;
},
{
glyphname = I;
kernLeft = "0";
kernRight = I;
lastChange = "2026-02-10 22:44:32 +0000";
layers = (
{
layerId = m01;
shapes = (
{
closed = 1;
nodes = (
(44,0,l),
(218,0,l),
(218,700,l),
(44,700,l)
);
}
);
width = 262;
},
{
layerId = m002;
shapes = (
{
closed = 1;
nodes = (
(75,0,l),
(135,0,l),
(135,700,l),
(75,700,l)
);
}
);
width = 210;
}
);
metricLeft = H;
metricRight = H;
unicode = 73;
},
{
glyphname = J;
kernLeft = "0";
kernRight = "0";
lastChange = "2026-02-10 22:44:32 +0000";
layers = (
{
layerId = m01;
shapes = (
{
closed = 1;
nodes = (
(191,-15,o),
(314,90,o),
(314,285,cs),
(314,700,l),
(140,700,l),
(140,266,ls),
(140,201,o),
(111,166,o),
(18,166,c),
(18,-15,l)
);
}
);
width = 357;
},
{
layerId = m002;
shapes = (
{
closed = 1;
nodes = (
(147,-15,o),
(209,82,o),
(209,213,cs),
(209,700,l),
(149,700,l),
(149,192,ls),
(149,112,o),
(99,45,o),
(5,45,c),
(5,-15,l)
);
}
);
width = 274;
}
);
unicode = 74;
},
{
glyphname = K;
kernLeft = "0";
kernRight = "0";
lastChange = "2026-02-10 22:44:32 +0000";
layers = (
{
layerId = m01;
shapes = (
{
closed = 1;
nodes = (
(44,0,l),
(218,0,l),
(218,700,l),
(44,700,l)
);
},
{
closed = 1;
nodes = (
(181,360,l),
(355,360,l),
(575,700,l),
(368,700,l)
);
},
{
closed = 1;
nodes = (
(571,0,l),
(355,360,l),
(181,360,l),
(368,0,l)
);
}
);
width = 583;
},
{
layerId = m002;
shapes = (
{
closed = 1;
nodes = (
(75,0,l),
(135,0,l),
(135,700,l),
(75,700,l)
);
},
{
closed = 1;
nodes = (
(123,366,l),
(198,366,l),
(479,700,l),
(399,700,l)
);
},
{
closed = 1;
nodes = (
(478,0,l),
(198,366,l),
(123,366,l),
(399,0,l)
);
}
);
width = 484;
}
);
metricLeft = H;
unicode = 75;
},
{
glyphname = L;
kernLeft = L;
kernRight = L;
lastChange = "2026-02-14 07:21:39 +0000";
layers = (
{
layerId = m01;
shapes = (
{
closed = 1;
nodes = (
(44,0,l),
(218,0,l),
(218,700,l),
(44,700,l)
);
},
{
closed = 1;
nodes = (
(448,1,l),
(468,163,l),
(52,163,l),
(52,1,l)
);
}
);
width = 492;
},
{
layerId = m002;
shapes = (
{
closed = 1;
nodes = (
(75,0,l),
(135,0,l),
(135,700,l),
(75,700,l)
);
},
{
closed = 1;
nodes = (
(462,1,l),
(472,61,l),
(77,61,l),
(77,1,l)
);
}
);
width = 527;
}
);
metricLeft = H;
metricRight = "=H-20";
unicode = 76;
},
{
glyphname = N;
kernLeft = "0";
kernRight = Napos;
lastChange = "2026-02-10 22:44:32 +0000";
layers = (
{
layerId = m01;
shapes = (
{
closed = 1;
nodes = (
(44,0,l),
(218,0,l),
(218,387,l),
(178,382,l),
(504,-40,l),
(339,0,l),
(558,0,l),
(558,700,l),
(384,700,l),
(384,313,l),
(424,318,l),
(98,740,l),
(263,700,l),
(44,700,l)
);
}
);
width = 602;
},
{
layerId = m002;
shapes = (
{
closed = 1;
nodes = (
(75,0,l),
(135,0,l),
(135,580,l),
(121,549,l),
(476,-40,l),
(313,0,l),
(475,0,l),
(475,700,l),
(415,700,l),
(415,120,l),
(429,151,l),
(74,740,l),
(237,700,l),
(75,700,l)
);
}
);
width = 550;
}
);
metricLeft = H;
metricRight = HH;
metricWidth = N;
unicode = 78;
},
{
glyphname = O;
kernLeft = O;
kernRight = O;
lastChange = "2026-02-12 00:24:22 +0000";
layers = (
{
layerId = m01;
shapes = (
{
closed = 1;
nodes = (
(549,-12,o),
(701,150,o),
(701,350,cs),
(701,550,o),
(549,712,o),
(362,712,cs),
(174,712,o),
(22,550,o),
(22,350,cs),
(22,150,o),
(174,-12,o),
(362,-12,cs)
);
},
{
closed = 1;
nodes = (
(270,162,o),
(196,246,o),
(196,350,cs),
(196,454,o),
(270,538,o),
(362,538,cs),
(453,538,o),
(527,454,o),
(527,350,cs),
(527,246,o),
(453,162,o),
(362,162,cs)
);
}
);
width = 723;
},
{
layerId = m002;
shapes = (
{
closed = 1;
nodes = (
(529,-2,o),
(673,156,o),
(673,350,cs),
(673,544,o),
(529,702,o),
(352,702,cs),
(175,702,o),
(31,544,o),
(31,350,cs),
(31,156,o),
(175,-2,o),
(352,-2,cs)
);
},
{
closed = 1;
nodes = (
(208,58,o),
(91,189,o),
(91,350,cs),
(91,511,o),
(208,642,o),
(352,642,cs),
(496,642,o),
(613,511,o),
(613,350,cs),
(613,189,o),
(496,58,o),
(352,58,cs)
);
}
);
width = 704;
}
);
unicode = 79;
},
{
glyphname = P;
kernLeft = P;
kernRight = P;
lastChange = "2026-02-11 00:01:22 +0000";
layers = (
{
layerId = m01;
shapes = (
{
closed = 1;
nodes = (
(286,184,ls),
(412,184,o),
(514,300,o),
(514,443,cs),
(514,585,o),
(412,701,o),
(286,701,c),
(83,700,l),
(83,184,l)
);
},
{
closed = 1;
nodes = (
(218,0,l),
(218,700,l),
(44,700,l),
(44,0,l)
);
},
{
closed = 1;
nodes = (
(220,527,l),
(264,527,l),
(306,527,o),
(340,489,o),
(340,443,cs),
(340,396,o),
(306,358,o),
(264,358,c),
(220,358,l)
);
}
);
width = 536;
},
{
layerId = m002;
shapes = (
{
closed = 1;
nodes = (
(255,234,ls),
(381,234,o),
(483,325,o),
(483,468,cs),
(483,610,o),
(381,701,o),
(255,701,c),
(76,700,l),
(76,234,l)
);
},
{
closed = 1;
nodes = (
(135,0,l),
(135,700,l),
(75,700,l),
(75,0,l)
);
},
{
closed = 1;
nodes = (
(132,641,l),
(237,641,l),
(373,641,o),
(422,558,o),
(422,468,cs),
(422,377,o),
(373,294,o),
(237,294,c),
(132,294,l)
);
}
);
width = 520.5;
}
);
metricLeft = H;
metricRight = "=H/2";
unicode = 80;
},
{
glyphname = Q;
kernLeft = "0";
kernRight = "0";
lastChange = "2026-02-10 22:44:32 +0000";
layers = (
{
layerId = m01;
shapes = (
{
ref = O;
},
{
closed = 1;
nodes = (
(259,341,l),
(482,-18,l),
(687,-18,l),
(464,340,l)
);
}
);
width = 724;
},
{
layerId = m002;
shapes = (
{
pos = (18,0);
ref = O;
},
{
closed = 1;
nodes = (
(371,356,l),
(594,-3,l),
(659,-3,l),
(436,355,l)
);
}
);
width = 708;
}
);
unicode = 81;
},
{
glyphname = R;
lastChange = "2026-02-10 22:44:32 +0000";
layers = (
{
layerId = m01;
shapes = (
{
closed = 1;
nodes = (
(320,263,l),
(441,263,o),
(539,361,o),
(539,482,cs),
(539,603,o),
(441,701,o),
(320,701,c),
(81,700,l),
(81,263,l)
);
},
{
closed = 1;
nodes = (
(218,0,l),
(218,700,l),
(44,700,l),
(44,0,l)
);
},
{
closed = 1;
nodes = (
(217,547,l),
(266,547,ls),
(313,547,o),
(350,510,o),
(350,463,c),
(350,416,o),
(313,379,o),
(266,379,c),
(217,379,l)
);
},
{
closed = 1;
nodes = (
(567,0,l),
(397,330,l),
(209,330,l),
(371,0,l)
);
}
);
width = 579;
},
{
layerId = m002;
shapes = (
{
closed = 1;
nodes = (
(254,263,l),
(375,263,o),
(473,361,o),
(473,482,c),
(473,603,o),
(375,701,o),
(254,701,c),
(95,700,l),
(95,263,l)
);
},
{
closed = 1;
nodes = (
(135,0,l),
(135,700,l),
(75,700,l),
(75,0,l)
);
},
{
closed = 1;
nodes = (
(135,640,l),
(254,640,ls),
(343,640,o),
(413,571,o),
(413,482,c),
(413,392,o),
(343,323,o),
(254,323,c),
(135,323,l)
);
},
{
closed = 1;
nodes = (
(476,0,l),
(313,321,l),
(251,321,l),
(406,0,l)
);
}
);
width = 507;
}
);
metricLeft = H;
unicode = 82;
},
{
glyphname = S;
lastChange = "2026-02-14 06:58:35 +0000";
layers = (
{
layerId = m01;
shapes = (
{
closed = 1;
nodes = (
(59,683.5,o),
(-28.5,533.5,o),
(53,395,cs),
(99,316,o),
(184.5,285.5,o),
(260.5,236,cs),
(280,223,o),
(295,203.5,o),
(284.5,182.5,cs),
(250,106.5,o),
(111,163,o),
(70,214.5,c),
(46,47,l),
(102,-5,o),
(183,-14.5,o),
(260,-7,cs),
(419.5,8.5,o),
(500,159,o),
(417.5,296.5,cs),
(375.5,364,o),
(301,396.5,o),
(235,439.5,cs),
(204.5,459,o),
(173,487.5,o),
(192.5,518.5,cs),
(237.5,586.5,o),
(356,544.5,o),
(397.5,481,c),
(423,661.5,l),
(356,700,o),
(291,714.5,o),
(218.5,705,cs)
);
}
);
width = 472.5;
},
{
layerId = m002;
shapes = (
{
closed = 1;
nodes = (
(120.5,729.5,o),
(-29.5,576.5,o),
(69.5,437.5,cs),
(102.5,391.5,o),
(157.5,352.5,o),
(228.5,317.5,cs),
(264.5,299.5,o),
(295.5,275.5,o),
(314.5,249.5,cs),
(402.5,126.5,o),
(251.5,-37.5,o),
(69.5,108.5,c),
(48.5,53.5,l),
(83.5,22.5,o),
(135.5,-1.5,o),
(183.5,-6.5,cs),
(329.5,-21.5,o),
(443.5,117.5,o),
(389.5,244.5,cs),
(367.5,296.5,o),
(328.5,331.5,o),
(230.5,384.5,cs),
(157.5,424.5,o),
(134.5,446.5,o),
(116.5,473.5,cs),
(43.5,582.5,o),
(214.5,727.5,o),
(372.5,586.5,c),
(394.5,644.5,l),
(355.5,675.5,o),
(310.5,697.5,o),
(269.5,704.5,cs)
);
}
);
width = 440.5;
}
);
metricLeft = "=H/2";
metricRight = "=H/2";
unicode = 83;
},
{
glyphname = T;
kernLeft = T;
kernRight = T;
lastChange = "2026-02-10 22:44:32 +0000";
layers = (
{
layerId = m01;
shapes = (
{
closed = 1;
nodes = (
(171,0,l),
(345,0,l),
(345,700,l),
(171,700,l)
);
},
{
closed = 1;
nodes = (
(17,539,l),
(489,539,l),
(489,701,l),
(17,701,l)
);
}
);
width = 506;
},
{
layerId = m002;
shapes = (
{
closed = 1;
nodes = (
(176,0,l),
(236,0,l),
(236,700,l),
(176,700,l)
);
},
{
closed = 1;
nodes = (
(5,641,l),
(407,641,l),
(407,701,l),
(5,701,l)
);
}
);
width = 412;
}
);
unicode = 84;
},
{
glyphname = U;
kernLeft = "0";
kernRight = "0";
lastChange = "2026-02-12 09:21:27 +0000";
layers = (
{
layerId = m01;
shapes = (
{
closed = 1;
nodes = (
(44,357.5,ls),
(44,123.5,o),
(176.5,-10,o),
(342.5,-10,cs),
(342.5,-10,ls),
(508.5,-10,o),
(661,123.5,o),
(661,357.5,cs),
(661,700,l),
(487.5,700,l),
(487.5,357.5,ls),
(487.5,118.5,o),
(217.5,118.5,o),
(217.5,357.5,cs),
(217.5,700,l),
(44,700,l)
);
}
);
width = 705;
},
{
layerId = m002;
shapes = (
{
closed = 1;
nodes = (
(75,276.5,ls),
(75,116.5,o),
(178,-12,o),
(326,-12,cs),
(326,-12,ls),
(474,-12,o),
(577,116.5,o),
(577,276.5,cs),
(577,700,l),
(517.5,700,l),
(517.5,276.5,ls),
(517.5,-28,o),
(134.5,-28,o),
(134.5,276.5,cs),
(134.5,700,l),
(75,700,l)
);
}
);
width = 652;
}
);
metricLeft = H;
metricRight = H;
unicode = 85;
},
{
color = 0;
glyphname = W;
kernLeft = W;
kernRight = W;
lastChange = "2026-02-10 23:58:02 +0000";
layers = (
{
layerId = m01;
shapes = (
{
closed = 1;
nodes = (
(117,0,l),
(341,0,l),
(427,491,l),
(381,491,l),
(466,0,l),
(693,0,l),
(793,700,l),
(618,700,l),
(573,274,l),
(481,700,l),
(327,700,l),
(237,278,l),
(192,700,l),
(17,700,l)
);
}
);
width = 810;
},
{
layerId = m002;
shapes = (
{
closed = 1;
nodes = (
(121,0,l),
(165,0,l),
(382,571,l),
(356,571,l),
(573,0,l),
(617,0,l),
(707,700,l),
(642,700,l),
(580,154,l),
(384,640,l),
(350,640,l),
(156,154,l),
(96,700,l),
(31,700,l)
);
}
);
width = 737;
}
);
unicode = 87;
},
{
glyphname = X;
kernLeft = X;
kernRight = X;
lastChange = "2026-02-10 22:44:32 +0000";
layers = (
{
layerId = m01;
shapes = (
{
closed = 1;
nodes = (
(226,308,l),
(226,389,l),
(14,0,l),
(212,0,l),
(300,210,l),
(261,209,l),
(351,0,l),
(549,0,l),
(336,388,l),
(337,307,l),
(549,700,l),
(351,700,l),
(260,487,l),
(300,487,l),
(209,700,l),
(10,700,l)
);
}
);
width = 559;
},
{
layerId = m002;
shapes = (
{
closed = 1;
nodes = (
(187,308,l),
(187,389,l),
(19,0,l),
(80,0,l),
(238,349,l),
(199,349,l),
(349,0,l),
(407,0,l),
(248,388,l),
(249,307,l),
(407,700,l),
(349,700,l),
(198,347,l),
(238,347,l),
(77,700,l),
(15,700,l)
);
}
);
width = 424;
}
);
unicode = 88;
},
{
glyphname = Y;
kernLeft = V;
kernRight = Y;
lastChange = "2026-02-21 23:13:32 +0000";
layers = (
{
layerId = m01;
shapes = (
{
closed = 1;
nodes = (
(223,268,l),
(334,267,l),
(546,700,l),
(348,700,l),
(257,447,l),
(297,447,l),
(206,700,l),
(7,700,l)
);
},
{
closed = 1;
nodes = (
(190,0,l),
(364,0,l),
(364,410,l),
(190,410,l)
);
}
);
width = 552;
},
{
layerId = m002;
shapes = (
{
closed = 1;
nodes = (
(190,338,l),
(248,337,l),
(430,700,l),
(366,700,l),
(198,369,l),
(238,369,l),
(70,700,l),
(5,700,l)
);
},
{
closed = 1;
nodes = (
(188,0,l),
(248,0,l),
(248,390,l),
(188,390,l)
);
}
);
width = 435;
}
);
unicode = 89;
},
{
glyphname = Z;
kernLeft = "0";
kernRight = "0";
lastChange = "2026-02-10 22:44:32 +0000";
layers = (
{
layerId = m01;
shapes = (
{
closed = 1;
nodes = (
(22,538,l),
(315,538,l),
(299,573,l),
(23,52,l),
(22,0,l),
(516,0,l),
(536,162,l),
(242,162,l),
(258,127,l),
(536,648,l),
(536,700,l),
(42,700,l)
);
}
);
width = 558;
},
{
layerId = m002;
shapes = (
{
closed = 1;
nodes = (
(14,640,l),
(352,640,l),
(338,653,l),
(16,0,l),
(14,0,l),
(423,0,l),
(433,60,l),
(91,60,l),
(107,47,l),
(428,700,l),
(428,700,l),
(24,700,l)
);
}
);
width = 446;
}
);
unicode = 90;
},
{
glyphname = S.ss03;
kernLeft = "0";
kernRight = "0";
lastChange = "2026-02-10 22:44:32 +0000";
layers = (
{
layerId = m01;
shapes = (
{
closed = 1;
nodes = (
(255,-1,o),
(346,91,o),
(346,193,cs),
(346,266,o),
(300,357,o),
(229,453,cs),
(167,536,o),
(278,577,o),
(351,540,c),
(351,700,l),
(321,708,o),
(289,711,o),
(258,709,cs),
(120,700,o),
(29,605,o),
(36,486,cs),
(42,386,o),
(107,340,o),
(158,254,cs),
(204,177,o),
(116,141,o),
(29,160,c),
(29,0,l),
(63,-9,o),
(98,-11,o),
(133,-9,cs)
);
}
);
width = 380;
},
{
layerId = m002;
shapes = (
{
closed = 1;
nodes = (
(241,-1,o),
(316,84,o),
(298,193,cs),
(275,313,o),
(163,371,o),
(109,481,cs),
(46,608,o),
(162,674,o),
(299,637,c),
(299,700,l),
(272,708,o),
(243,710,o),
(215,709,cs),
(82,704,o),
(-6,611,o),
(40,486,cs),
(83,368,o),
(200,313,o),
(236,193,cs),
(271,75,o),
(153,21,o),
(37,63,c),
(37,0,l),
(68,-9,o),
(99,-11,o),
(131,-9,cs)
);
}
);
width = 331;
}
);
},
{
glyphname = U.ss03;
kernLeft = "0";
kernRight = "0";
lastChange = "2026-02-12 09:17:49 +0000";
layers = (
{
layerId = m01;
shapes = (
{
closed = 1;
nodes = (
(44,285,ls),
(44,90,o),
(167,-15,o),
(301,-15,cs),
(301,-15,ls),
(435,-15,o),
(558,90,o),
(558,285,cs),
(558,700,l),
(384,700,l),
(384,266,ls),
(384,130,o),
(218,130,o),
(218,266,cs),
(218,700,l),
(44,700,l)
);
}
);
width = 602;
},
{
layerId = m002;
shapes = (
{
closed = 1;
nodes = (
(75,214,ls),
(75,90,o),
(157,-12,o),
(275,-12,cs),
(275,-12,ls),
(393,-12,o),
(475,90,o),
(475,214,cs),
(475,700,l),
(415,700,l),
(415,217,ls),
(415,-8,o),
(135,-8,o),
(135,217,cs),
(135,700,l),
(75,700,l)
);
}
);
width = 550;
}
);
metricLeft = H;
metricRight = H;
},
{
glyphname = a;
kernLeft = o;
kernRight = a;
lastChange = "2026-02-11 03:48:59 +0000";
layers = (
{
layerId = m01;
shapes = (
{
closed = 1;
nodes = (
(219,-4,o),
(272,6,o),
(289,74,c),
(288,53,o),
(288,13,o),
(288,0,c),
(460,0,l),
(461,134,o),
(460,119,o),
(461,253,c),
(461,392,o),
(407,532,o),
(250,549,cs),
(203,554,o),
(124,547,o),
(50,519,c),
(81,373,l),
(121,400,o),
(199,406,o),
(233,400,cs),
(259,395,o),
(296,373,o),
(295,338,cs),
(295,332,o),
(297,334,o),
(297,324,c),
(273,348,o),
(230,360,o),
(193,360,cs),
(97,360,o),
(25,274,o),
(25,172,cs),
(25,69,o),
(82,-4,o),
(179,-4,cs)
);
},
{
closed = 1;
nodes = (
(224,129,o),
(195,142,o),
(195,182,cs),
(195,221,o),
(224,234,o),
(250,234,cs),
(275,234,o),
(304,219,o),
(304,182,c),
(304,144,o),
(275,129,o),
(250,129,cs)
);
}
);
width = 495;
},
{
layerId = m002;
shapes = (
{
closed = 1;
nodes = (
(325,-4,o),
(381,23,o),
(419,69,c),
(415,62,o),
(409,45,o),
(409,0,c),
(469,0,l),
(470,164,o),
(469,156,o),
(470,320,c),
(470,436,o),
(394,526,o),
(280,546,cs),
(231,555,o),
(154,539,o),
(87,506,c),
(117,453,l),
(181,489,o),
(263,496,o),
(321,471,cs),
(359,454,o),
(391,421,o),
(400,388,cs),
(410,356,o),
(407,338,o),
(406,318,c),
(385,368,o),
(325,396,o),
(264,396,cs),
(134,396,o),
(34,313,o),
(34,195,cs),
(34,78,o),
(134,-4,o),
(264,-4,cs)
);
},
{
closed = 1;
nodes = (
(161,57,o),
(94,117,o),
(94,195,cs),
(94,275,o),
(161,336,o),
(252,336,cs),
(341,336,o),
(409,275,o),
(409,195,c),
(409,117,o),
(341,57,o),
(252,57,cs)
);
}
);
width = 513;
}
);
metricLeft = o;
metricRight = h;
unicode = 97;
},
{
glyphname = c;
kernLeft = o;
kernRight = h;
lastChange = "2026-02-11 02:51:47 +0000";
layers = (
{
layerId = m01;
shapes = (
{
closed = 1;
nodes = (
(25,109,o),
(142,-8,o),
(307,-8,cs),
(342,-8,o),
(395,-3,o),
(439,32,c),
(399,197,l),
(371,176,o),
(331,172,o),
(307,172,cs),
(241,172,o),
(199,212,o),
(199,269,cs),
(199,326,o),
(241,365,o),
(307,365,cs),
(332,365,o),
(372,362,o),
(399,341,c),
(439,506,l),
(394,540,o),
(342,545,o),
(307,545,cs),
(142,545,o),
(25,429,o),
(25,269,cs)
);
}
);
width = 473;
},
{
layerId = m002;
shapes = (
{
closed = 1;
nodes = (
(37,107,o),
(155,-6,o),
(317,0,cs),
(364,1,o),
(410,14,o),
(449,40,c),
(449,112,l),
(406,70,o),
(348,58,o),
(288,61,cs),
(173,66,o),
(95,155,o),
(95,270,cs),
(95,386,o),
(172,473,o),
(288,480,cs),
(348,484,o),
(406,470,o),
(449,427,c),
(450,497,l),
(408,527,o),
(359,541,o),
(308,541,cs),
(150,541,o),
(31,427,o),
(34,269,cs)
);
}
);
width = 493;
}
);
metricLeft = o;
metricRight = h;
unicode = 99;
},
{
glyphname = d;
kernLeft = o;
kernRight = d;
lastChange = "2026-02-11 03:49:15 +0000";
layers = (
{
layerId = m01;
shapes = (
{
closed = 1;
nodes = (
(394,539,l),
(567,539,l),
(567,699,l),
(394,699,l)
);
},
{
pos = (3,0);
ref = a.ss01;
}
);
width = 611;
},
{
layerId = m002;
shapes = (
{
closed = 1;
nodes = (
(451,521,l),
(510,521,l),
(511,699,l),
(452,699,l)
);
},
{
pos = (-3,0);
ref = a.ss01;
}
);
width = 586;
}
);
metricLeft = a;
metricRight = H;
unicode = 100;
},
{
glyphname = e;
kernLeft = o;
kernRight = o;
lastChange = "2026-02-10 22:44:32 +0000";
layers = (
{
layerId = m01;
shapes = (
{
closed = 1;
nodes = (
(377,-9,o),
(458,17,o),
(521,49,c),
(477,195,l),
(432,163,o),
(358,142,o),
(301,148,cs),
(247,154,o),
(207,183,o),
(184,220,c),
(535,220,l),
(540,270,ls),
(552,389,o),
(445,547,o),
(280,547,cs),
(141,547,o),
(25,430,o),
(25,270,cs),
(25,110,o),
(140,-3,o),
(300,-7,cs)
);
},
{
closed = 1;
nodes = (
(210,332,l),
(219,371,o),
(248,390,o),
(281,390,c),
(314,390,o),
(343,371,o),
(352,332,c)
);
}
);
width = 566;
},
{
layerId = m002;
shapes = (
{
closed = 1;
nodes = (
(368,0,o),
(431,26,o),
(500,82,c),
(464,131,l),
(420,90,o),
(352,60,o),
(294,60,cs),
(189,60,o),
(101,141,o),
(97,240,c),
(523,240,l),
(527,270,ls),
(544,399,o),
(423,537,o),
(291,537,cs),
(154,537,o),
(34,422,o),
(34,270,cs),
(34,117,o),
(154,0,o),
(301,0,cs)
);
},
{
closed = 1;
nodes = (
(96,300,l),
(118,414,o),
(186,477,o),
(287,477,cs),
(383,477,o),
(454,408,o),
(470,300,c)
);
}
);
width = 559;
}
);
unicode = 101;
},
{
glyphname = f;
kernLeft = f;
kernRight = f;
lastChange = "2026-02-11 03:13:24 +0000";
layers = (
{
layerId = m01;
shapes = (
{
closed = 1;
nodes = (
(186,784,o),
(97,715,o),
(90,557,c),
(87,452,o),
(85,163,o),
(85,0,c),
(257,0,l),
(260,542,ls),
(260,595,o),
(284,609,o),
(322,613,cs),
(341,615,o),
(358,613,o),
(377,613,c),
(357,787,l),
(334,787,l)
);
},
{
closed = 1;
nodes = (
(22,378,l),
(348,378,l),
(368,540,l),
(22,540,l)
);
}
);
width = 394;
},
{
layerId = m002;
shapes = (
{
closed = 1;
nodes = (
(161.5,744,o),
(110.5,670,o),
(110.5,569,c),
(107.5,464,o),
(106.5,163,o),
(106.5,0,c),
(166.5,0,l),
(170.5,532,ls),
(170.5,555,o),
(162.5,687,o),
(267.5,687,cs),
(276.5,687,o),
(283.5,687,o),
(302.5,687,c),
(292.5,747,l),
(259.5,747,l)
);
},
{
closed = 1;
nodes = (
(37.5,480,l),
(280.5,480,l),
(281.5,540,l),
(37.5,540,l)
);
}
);
width = 324;
}
);
metricLeft = "=h/2";
metricRight = "=h/2";
unicode = 102;
},
{
glyphname = g;
kernLeft = "0";
kernRight = "0";
lastChange = "2026-02-11 09:21:19 +0000";
layers = (
{
layerId = m01;
shapes = (
{
closed = 1;
nodes = (
(122,557,o),
(20,432,o),
(20,271,cs),
(20,110,o),
(134,16,o),
(257,16,cs),
(333,16,o),
(386,57,o),
(416,139,c),
(414,97,o),
(416,-7,o),
(323,-31,cs),
(246,-51,o),
(172,-32,o),
(114,-12,c),
(95,-176,l),
(207,-205,o),
(352.5,-220,o),
(461,-127,cs),
(594.5,-12.5,o),
(575,184,o),
(574,316,c),
(573,539,l),
(386,539,l),
(386,495,o),
(388,471.5,o),
(396,438,c),
(379,500,o),
(317,538,o),
(257,544,cs)
);
},
{
closed = 1;
nodes = (
(357,386,o),
(400,339,o),
(400,277,c),
(400,214,o),
(357,167,o),
(297,167,cs),
(236,167,o),
(195,214,o),
(195,277,cs),
(195,339,o),
(236,386,o),
(297,386,cs)
);
}
);
width = 619;
},
{
layerId = m002;
shapes = (
{
closed = 1;
nodes = (
(123,544,o),
(29,422,o),
(29,271,cs),
(29,123,o),
(116,-3,o),
(264,-3,cs),
(342,-3,o),
(409,29,o),
(442,99,c),
(437,-3,o),
(413,-89,o),
(317,-124,cs),
(240,-152,o),
(164,-125,o),
(96,-78,c),
(75,-136,l),
(158,-187,o),
(247,-216,o),
(338,-181,cs),
(538,-104,o),
(506,101,o),
(504,316,c),
(503,539,l),
(443,539,l),
(442,490.5,o),
(446,471.5,o),
(453,438,c),
(430,510,o),
(349,541,o),
(274,542,cs)
);
},
{
closed = 1;
nodes = (
(380,484,o),
(451,391,o),
(451,277,c),
(451,158,o),
(385,55,o),
(266,55,cs),
(149,55,o),
(89,160,o),
(89,277,cs),
(89,390,o),
(153,484,o),
(266,484,cs)
);
}
);
width = 565;
}
);
unicode = 103;
},
{
glyphname = h;
kernLeft = h;
kernRight = h;
lastChange = "2026-02-11 09:19:52 +0000";
layers = (
{
layerId = m01;
shapes = (
{
closed = 1;
nodes = (
(220,271,ls),
(220,334,o),
(248,381,o),
(308,381,cs),
(369,381,o),
(395,334,o),
(395,271,cs),
(395,0,l),
(570,0,l),
(570,269,ls),
(570,430,o),
(496,544,o),
(369,544,cs),
(297,544,o),
(223,484,o),
(211,426,c),
(225.5,476.5,o),
(230,511,o),
(231,549.5,cs),
(231,557.5,o),
(231,690.5,o),
(231,699,c),
(44,699,l),
(47,0,l),
(222,0,l)
);
}
);
width = 604;
},
{
layerId = m002;
shapes = (
{
closed = 1;
nodes = (
(137,292,ls),
(136,402,o),
(204,485,o),
(307,485,cs),
(410,485,o),
(471,407,o),
(471,292,cs),
(471,0,l),
(530,0,l),
(530,282,ls),
(530,431,o),
(422,545,o),
(306,545,cs),
(214,545,o),
(136,480,o),
(116,412,c),
(130.5,482,o),
(136,513,o),
(136,543,cs),
(136,609,o),
(136,684.5,o),
(136,699,c),
(75,699,l),
(78,0,l),
(140,0,l)
);
}
);
width = 573;
}
);
metricLeft = H;
unicode = 104;
},
{
glyphname = i;
kernLeft = i;
kernRight = i;
lastChange = "2026-02-12 00:26:07 +0000";
layers = (
{
layerId = m01;
shapes = (
{
pos = (19.25,603);
ref = period;
scale = (1.1291,1.1291);
},
{
closed = 1;
nodes = (
(48.25,0,l),
(222.25,0,l),
(222.25,540,l),
(48.25,540,l)
);
}
);
width = 271;
},
{
layerId = m002;
shapes = (
{
pos = (32.75,635);
ref = period;
scale = (1.1291,1.1291);
},
{
closed = 1;
nodes = (
(92.75,0,l),
(152.75,0,l),
(152.75,540,l),
(92.75,540,l)
);
}
);
width = 243.75;
}
);
metricLeft = H;
metricRight = H;
unicode = 105;
},
{
glyphname = j;
kernLeft = j;
kernRight = j;
lastChange = "2026-02-11 23:58:42 +0000";
layers = (
{
layerId = m01;
shapes = (
{
pos = (102,603);
ref = period;
scale = (1.1291,1.1291);
},
{
closed = 1;
nodes = (
(187,-183,o),
(310,-78,o),
(310,117,cs),
(310,540,l),
(136,540,l),
(136,98,ls),
(136,33,o),
(107,-2,o),
(14,-2,c),
(14,-183,l)
);
}
);
width = 354;
},
{
layerId = m002;
shapes = (
{
pos = (82.5,637);
ref = period;
scale = (1.1291,1.1291);
},
{
closed = 1;
nodes = (
(92,-183,o),
(205,-137,o),
(205,20,cs),
(205,540,l),
(145,540,l),
(145,13,ls),
(145,-99,o),
(65,-121,o),
(3,-121,c),
(3,-183,l)
);
}
);
width = 273;
}
);
unicode = 106;
},
{
glyphname = k;
kernLeft = k;
kernRight = k;
lastChange = "2026-02-12 09:24:59 +0000";
layers = (
{
layerId = m01;
shapes = (
{
closed = 1;
nodes = (
(44,0,l),
(218,0,l),
(218,260,l),
(220,260,l),
(363,0,l),
(392,0,o),
(532,0,o),
(562,0,c),
(399.5,295.5,l),
(566,540,l),
(536,540,o),
(384,540,o),
(355,540,c),
(218,339,l),
(218,700,l),
(188,700,o),
(73,700,o),
(44,700,c)
);
}
);
width = 576;
},
{
layerId = m002;
shapes = (
{
closed = 1;
nodes = (
(75,0,l),
(135,0,l),
(135,233.5,l),
(178,279,l),
(380.5,0,l),
(409.5,0,o),
(425,0,o),
(455,0,c),
(220,323.5,l),
(425,540,l),
(395,540,o),
(238,540,o),
(342,540,c),
(135,321.5,l),
(135,700,l),
(125,700,o),
(85,700,o),
(75,700,c)
);
}
);
width = 465;
}
);
metricLeft = H;
metricRight = F;
unicode = 107;
},
{
glyphname = l;
kernLeft = o;
kernRight = h;
lastChange = "2026-02-11 03:48:09 +0000";
layers = (
{
layerId = m01;
shapes = (
{
closed = 1;
nodes = (
(44,0,l),
(218,0,l),
(218,700,l),
(188,700,o),
(73,700,o),
(44,700,c)
);
}
);
width = 262;
},
{
layerId = m002;
shapes = (
{
closed = 1;
nodes = (
(75,0,l),
(135,0,l),
(135,700,l),
(125,700,o),
(85,700,o),
(75,700,c)
);
}
);
width = 210;
}
);
metricLeft = H;
metricRight = H;
unicode = 108;
},
{
glyphname = m;
kernLeft = m;
kernRight = m;
lastChange = "2026-02-12 00:22:58 +0000";
layers = (
{
layerId = m01;
shapes = (
{
ref = n;
},
{
closed = 1;
nodes = (
(570,271,ls),
(568,334,o),
(596,381,o),
(656,381,cs),
(717,381,o),
(743,334,o),
(743,271,cs),
(743,0,l),
(918,0,l),
(918,90,o),
(918,179,o),
(918,269,cs),
(918,430,o),
(834.5,547,o),
(711,544,cs),
(649.5,542.5,o),
(565,511,o),
(536,430,c),
(395,354.5,l),
(395,0,l),
(570,0,l)
);
},
{
closed = 0;
nodes = (
(403,434.5,l)
);
}
);
width = 960.5;
},
{
layerId = m002;
shapes = (
{
ref = n;
},
{
closed = 1;
nodes = (
(526.5,269,ls),
(526,391,o),
(583.5,484,o),
(694.5,484,cs),
(808.5,484,o),
(857.5,388,o),
(857.5,249,cs),
(857.5,0,l),
(918.5,0,l),
(918.5,83,o),
(918.5,166,o),
(918.5,249,cs),
(918.5,427,o),
(830.5,549.5,o),
(694.5,544,cs),
(602.5,540,o),
(517.5,475,o),
(497.5,405,c),
(466.5,381,l),
(466.5,0,l),
(526.5,0,l)
);
},
{
closed = 0;
nodes = (
(464.5,439,l)
);
}
);
width = 974.5;
}
);
metricLeft = h;
metricRight = n;
unicode = 109;
},
{
glyphname = n;
kernLeft = h;
kernRight = h;
lastChange = "2026-02-12 00:22:55 +0000";
layers = (
{
layerId = m01;
shapes = (
{
closed = 1;
nodes = (
(220,271,ls),
(220,334,o),
(248,381,o),
(308,381,cs),
(369,381,o),
(395,334,o),
(395,271,cs),
(395,0,l),
(570,0,l),
(570,90,o),
(570,179,o),
(570,269,cs),
(570,430,o),
(486,558,o),
(363,544,cs),
(316,539,o),
(250,511,o),
(221,430,c),
(231,466,o),
(231,504,o),
(231,540,c),
(44,540,l),
(47,0,l),
(222,0,l)
);
},
{
closed = 0;
nodes = (
(44,540,l)
);
}
);
width = 612;
},
{
layerId = m002;
shapes = (
{
closed = 1;
nodes = (
(133,269,ls),
(132,391,o),
(192,484,o),
(303,484,cs),
(417,484,o),
(466,388,o),
(466,249,cs),
(466,0,l),
(527,0,l),
(527,83,o),
(527,166,o),
(527,249,cs),
(527,427,o),
(439,544,o),
(303,544,cs),
(221,544,o),
(133,481,o),
(113,411,c),
(116,427,o),
(132,484,o),
(132,540,c),
(75,540,l),
(75,0,l),
(135,0,l)
);
},
{
closed = 0;
nodes = (
(75,540,l)
);
}
);
width = 583;
}
);
metricLeft = h;
unicode = 110;
},
{
glyphname = o;
kernLeft = o;
kernRight = o;
lastChange = "2026-02-21 23:13:54 +0000";
layers = (
{
layerId = m01;
shapes = (
{
closed = 1;
nodes = (
(429,-4,o),
(546,120,o),
(546,273,cs),
(546,425,o),
(429,549,o),
(286,549,cs),
(142,549,o),
(25,425,o),
(25,273,cs),
(25,120,o),
(142,-4,o),
(286,-4,cs)
);
},
{
closed = 1;
nodes = (
(237,170,o),
(199,215,o),
(199,273,cs),
(199,330,o),
(237,375,o),
(286,375,cs),
(334,375,o),
(372,330,o),
(372,273,cs),
(372,215,o),
(334,170,o),
(286,170,cs)
);
}
);
width = 571;
},
{
layerId = m002;
shapes = (
{
closed = 1;
nodes = (
(435,-1,o),
(551,120,o),
(551,270,cs),
(551,419,o),
(435,540,o),
(293,540,cs),
(150,540,o),
(34,419,o),
(34,270,cs),
(34,120,o),
(150,-1,o),
(293,-1,cs)
);
},
{
closed = 1;
nodes = (
(181,59,o),
(94,152,o),
(94,271,cs),
(94,387,o),
(181,480,o),
(294,480,c),
(404,480,o),
(491,387,o),
(491,271,cs),
(491,152,o),
(404,59,o),
(294,59,cs)
);
}
);
width = 585;
}
);
unicode = 111;
},
{
glyphname = r;
kernLeft = r;
kernRight = r;
lastChange = "2026-02-10 22:44:32 +0000";
layers = (
{
layerId = m01;
shapes = (
{
closed = 1;
nodes = (
(220,268,ls),
(220,331,o),
(263,372,o),
(310,379,cs),
(342,384,o),
(373,374,o),
(401,361,c),
(427,535,l),
(413,541,o),
(386,548,o),
(352,545,cs),
(276,538,o),
(233,484,o),
(221,427,c),
(221,540,l),
(44,540,l),
(47,0,l),
(222,0,l)
);
}
);
width = 444;
},
{
layerId = m002;
shapes = (
{
closed = 1;
nodes = (
(138,286,ls),
(137,392,o),
(198,453,o),
(254,475,cs),
(296,490,o),
(336,487,o),
(372,464,c),
(381,535,l),
(364,541,o),
(332,548,o),
(292,545,cs),
(201,538,o),
(150,484,o),
(136,427,c),
(136,540,l),
(75,540,l),
(78,0,l),
(140,0,l)
);
}
);
width = 391;
}
);
metricLeft = H;
unicode = 114;
},
{
glyphname = s;
kernLeft = s;
kernRight = s;
lastChange = "2026-02-11 10:37:24 +0000";
layers = (
{
layerId = m01;
shapes = (
{
closed = 1;
nodes = (
(191,401,o),
(217,401,cs),
(238,401,o),
(263,386,o),
(276,365,c),
(377,463,l),
(343,515,o),
(279,547,o),
(211,547,cs),
(109,547,o),
(22,467,o),
(24,375,cs),
(26,304,o),
(81,250,o),
(182,215,cs),
(239,196,o),
(225,135,o),
(182,146,cs),
(160,152,o),
(135,169,o),
(123,184,c),
(22,74,l),
(73,19,o),
(137,-9,o),
(203,-6,cs),
(309,-1,o),
(388,76,o),
(378,179,cs),
(371,240,o),
(320,291,o),
(211,346,cs),
(159,372,o)
);
}
);
width = 396;
},
{
layerId = m002;
shapes = (
{
closed = 1;
nodes = (
(92.5,466,o),
(202.5,485,cs),
(260.5,495,o),
(304.5,478,o),
(353.5,428,c),
(392.5,463,l),
(358.5,515,o),
(294.5,547,o),
(226.5,547,cs),
(122.5,547,o),
(42.5,462,o),
(64.5,375,cs),
(80.5,315,o),
(134.5,270,o),
(207.5,255,cs),
(357.5,225,o),
(369.5,90,o),
(237.5,57,cs),
(183.5,43,o),
(102.5,75,o),
(84.5,116,c),
(37.5,74,l),
(94.5,13,o),
(149.5,-11,o),
(218.5,-6,cs),
(334.5,3,o),
(404.5,82,o),
(383.5,179,cs),
(369.5,247,o),
(311.5,293,o),
(211.5,316,cs),
(99.5,341,o)
);
}
);
width = 414;
}
);
metricLeft = "=h/2";
metricRight = "=h/2";
unicode = 115;
},
{
glyphname = t;
kernLeft = "0";
kernRight = "0";
lastChange = "2026-02-11 03:15:02 +0000";
layers = (
{
layerId = m01;
shapes = (
{
closed = 1;
nodes = (
(363,-7,l),
(373,167,l),
(354,167,o),
(337,165,o),
(318,167,cs),
(280,171,o),
(256,185,o),
(256,238,cs),
(253,701,l),
(81,701,l),
(81,538,o),
(83,328,o),
(86,223,c),
(93,65,o),
(182,-4,o),
(330,-7,c)
);
},
{
closed = 1;
nodes = (
(363.5,378,l),
(373.5,540,l),
(17.5,540,l),
(17.5,378,l)
);
}
);
width = 404;
},
{
layerId = m002;
shapes = (
{
closed = 1;
nodes = (
(275,-5,l),
(285,55,l),
(266,55,o),
(259,55,o),
(250,55,cs),
(145,55,o),
(153,187,o),
(153,210,cs),
(149,702,l),
(89,702,l),
(89,539,o),
(90,278,o),
(93,173,c),
(93,72,o),
(144,-2,o),
(242,-5,c)
);
},
{
closed = 1;
nodes = (
(274,480,l),
(273,540,l),
(10,540,l),
(10,480,l)
);
}
);
width = 302;
}
);
unicode = 116;
},
{
glyphname = v;
kernLeft = w;
kernRight = w;
lastChange = "2026-02-10 22:44:32 +0000";
layers = (
{
layerId = m01;
shapes = (
{
closed = 1;
nodes = (
(201,0,l),
(375,0,l),
(566,540,l),
(537,540,o),
(422,540,o),
(392,540,c),
(288,206,l),
(184,540,l),
(154,540,o),
(39,540,o),
(10,540,c)
);
}
);
width = 576;
},
{
layerId = m002;
shapes = (
{
closed = 1;
nodes = (
(202,0,l),
(276,0,l),
(467,540,l),
(438,540,o),
(433,540,o),
(403,540,c),
(239,78,l),
(75,540,l),
(45,540,o),
(40,540,o),
(11,540,c)
);
}
);
width = 478;
}
);
unicode = 118;
},
{
glyphname = w;
kernLeft = w;
kernRight = w;
lastChange = "2026-02-10 22:44:32 +0000";
layers = (
{
layerId = m01;
shapes = (
{
closed = 1;
nodes = (
(182,0,l),
(316,0,l),
(420,274,l),
(524,0,l),
(658,0,l),
(829,540,l),
(800,540,o),
(685,540,o),
(655,540,c),
(591,266,l),
(487,540,l),
(458,540,o),
(383,540,o),
(353,540,c),
(249,266,l),
(185,540,l),
(155,540,o),
(40,540,o),
(11,540,c)
);
}
);
width = 840;
},
{
layerId = m002;
shapes = (
{
closed = 1;
nodes = (
(202,0,l),
(276,0,l),
(415,450,l),
(554,0,l),
(628,0,l),
(819,540,l),
(790,540,o),
(785,540,o),
(755,540,c),
(591,78,l),
(447,540,l),
(418,540,o),
(413,540,o),
(383,540,c),
(239,78,l),
(75,540,l),
(45,540,o),
(40,540,o),
(11,540,c)
);
}
);
width = 830;
}
);
unicode = 119;
},
{
glyphname = x;
kernLeft = x;
kernRight = x;
lastChange = "2026-02-10 22:51:11 +0000";
layers = (
{
layerId = m01;
shapes = (
{
closed = 1;
nodes = (
(191,270,l),
(10,0,l),
(224,0,l),
(288,137,l),
(352,0,l),
(566,0,l),
(385,270,l),
(556,540,l),
(527,540,o),
(385,540,o),
(355,540,c),
(288,403,l),
(223,540,l),
(193,540,o),
(39,540,o),
(10,540,c)
);
}
);
width = 576;
},
{
layerId = m002;
shapes = (
{
closed = 1;
nodes = (
(193,270,l),
(12,0,l),
(85,0,l),
(219,211,l),
(355,0,l),
(427,0,l),
(246,270,l),
(417,540,l),
(388,540,o),
(236,540,o),
(347,540,c),
(219,330,l),
(85,540,l),
(55,540,o),
(41,540,o),
(12,540,c)
);
}
);
width = 438;
}
);
unicode = 120;
},
{
color = 1;
glyphname = y;
kernLeft = y;
kernRight = y;
lastChange = "2026-02-10 22:44:32 +0000";
layers = (
{
layerId = m01;
shapes = (
{
closed = 1;
nodes = (
(37,271,ls),
(37,110,o),
(143,16,o),
(257,16,cs),
(328,16,o),
(377,57,o),
(405,139,c),
(403,97,o),
(401,5,o),
(311,-26,cs),
(224,-56,o),
(141,-27,o),
(76,4,c),
(54,-174,l),
(183,-226,o),
(338,-249,o),
(470,-117,cs),
(606,19,o),
(564,184,o),
(563,316,cs),
(562,540,l),
(390,540,l),
(390,277,ls),
(390,214,o),
(352,167,o),
(300,167,cs),
(247,167,o),
(211,214,o),
(211,277,cs),
(212,540,l),
(37,540,l)
);
},
{
closed = 1;
nodes = (
(390,540,l),
(212,540,l)
);
}
);
width = 608;
},
{
layerId = m002;
shapes = (
{
closed = 1;
nodes = (
(46,271,ls),
(46,128,o),
(135,16,o),
(278,16,cs),
(358,16,o),
(421,63,o),
(447,139,c),
(447,40,o),
(430,-57,o),
(344,-107,cs),
(260,-156,o),
(162,-141,o),
(88,-77,c),
(66,-134,l),
(164,-200,o),
(282,-220,o),
(380,-154,cs),
(533,-52,o),
(493,132,o),
(492,316,cs),
(491,540,l),
(432,540,l),
(432,277,ls),
(432,169,o),
(386,76,o),
(278,76,cs),
(167,76,o),
(106,166,o),
(106,277,cs),
(107,540,l),
(46,540,l)
);
},
{
closed = 1;
nodes = (
(432,540,l),
(107,540,l)
);
}
);
width = 554;
}
);
unicode = 121;
},
{
glyphname = z;
kernLeft = "0";
kernRight = "0";
lastChange = "2026-02-10 22:44:32 +0000";
layers = (
{
layerId = m01;
shapes = (
{
closed = 1;
nodes = (
(31,56,l),
(31,0,l),
(205,0,l),
(532,484,l),
(532,540,l),
(358,540,l)
);
},
{
closed = 1;
nodes = (
(32,540,l),
(32,366,l),
(414,366,l),
(532,540,l)
);
},
{
closed = 1;
nodes = (
(151,174,l),
(32,0,l),
(532,0,l),
(532,30,o),
(532,145,o),
(532,174,c)
);
}
);
width = 563;
},
{
layerId = m002;
shapes = (
{
closed = 1;
nodes = (
(22,26,l),
(22,0,l),
(76,0,l),
(403,514,l),
(403,540,l),
(349,540,l)
);
},
{
closed = 1;
nodes = (
(23,540,l),
(23,480,l),
(365,480,l),
(403,540,l)
);
},
{
closed = 1;
nodes = (
(62,60,l),
(23,0,l),
(403,0,l),
(403,11,o),
(403,50,o),
(403,60,c)
);
}
);
width = 425;
}
);
unicode = 122;
},
{
glyphname = a.ss01;
kernLeft = "0";
kernRight = "0";
lastChange = "2026-02-10 22:44:32 +0000";
layers = (
{
layerId = m01;
shapes = (
{
closed = 1;
nodes = (
(323,2,o),
(375,40,o),
(388,102,c),
(388,68,o),
(388,34,o),
(388,0,c),
(564,0,l),
(564,539,l),
(391,539,l),
(391,477,o),
(397,453,o),
(403,422,c),
(392,463,o),
(349,536,o),
(259,544,cs),
(132,555,o),
(22,430,o),
(22,269,cs),
(22,108,o),
(132,-16,o),
(259,-4,cs)
);
},
{
closed = 1;
nodes = (
(238,162,o),
(197,209,o),
(197,271,cs),
(197,334,o),
(238,381,o),
(299,381,cs),
(359,381,o),
(402,334,o),
(402,271,c),
(402,209,o),
(359,162,o),
(299,162,cs)
);
}
);
width = 608;
},
{
layerId = m002;
shapes = (
{
closed = 1;
nodes = (
(359,-4,o),
(422,24,o),
(461,82,c),
(450,56,o),
(451,28,o),
(451,0,c),
(511,0,l),
(514,530,l),
(454,530,l),
(454,504,o),
(451,477,o),
(463,454,c),
(421,510,o),
(360,544,o),
(290,544,cs),
(136,544,o),
(37,423,o),
(37,269,cs),
(37,115,o),
(136,-4,o),
(290,-4,cs)
);
},
{
closed = 1;
nodes = (
(166,57,o),
(97,153,o),
(97,269,cs),
(97,385,o),
(166,483,o),
(282,483,cs),
(396,483,o),
(457,383,o),
(457,269,c),
(457,156,o),
(395,57,o),
(282,57,cs)
);
}
);
width = 589;
}
);
metricLeft = "=H/2";
metricRight = H;
},
{
color = 0;
glyphname = y.ss02;
kernLeft = "0";
kernRight = "0";
lastChange = "2026-02-10 22:44:32 +0000";
layers = (
{
layerId = m01;
shapes = (
{
closed = 1;
nodes = (
(286,206,l),
(182,540,l),
(152,540,o),
(37,540,o),
(8,540,c),
(69,362,o),
(131,182,o),
(192,4,cs),
(196,-6,o),
(195,-14,o),
(191,-23,cs),
(184,-36,o),
(174,-50,o),
(158,-46,cs),
(141,-42,o),
(123,-37,o),
(106,-33,c),
(56,-182,l),
(91,-196,o),
(120,-209,o),
(171,-209,cs),
(263,-209,o),
(323,-158,o),
(354,-71,c),
(570,540,l),
(549,540,o),
(403,540,o),
(390,540,c)
);
}
);
width = 578;
},
{
layerId = m002;
shapes = (
{
closed = 1;
nodes = (
(239,74,l),
(74,540,l),
(44,540,o),
(39,540,o),
(10,540,c),
(72,364,o),
(134,189,o),
(196,13,cs),
(200,4,o),
(200,-4,o),
(197,-13,cs),
(183,-72,o),
(163,-109,o),
(143,-112,cs),
(118,-116,o),
(103,-111,o),
(75,-90,c),
(51,-148,l),
(96,-176,o),
(112,-180,o),
(152,-172,cs),
(203,-161,o),
(238,-113,o),
(275,0,c),
(481,540,l),
(475,540,o),
(422,540,o),
(416,540,c)
);
}
);
width = 487;
}
);
},
{
glyphname = f.ss05;
kernLeft = f;
kernRight = f;
lastChange = "2026-02-11 03:25:42 +0000";
layers = (
{
layerId = m01;
shapes = (
{
closed = 1;
nodes = (
(145,784,o),
(56,715,o),
(49,557,c),
(46,452,o),
(44,163,o),
(44,0,c),
(216,0,l),
(219,542,ls),
(219,595,o),
(243,609,o),
(281,613,cs),
(300,615,o),
(317,613,o),
(336,613,c),
(316,787,l),
(293,787,l)
);
},
{
closed = 1;
nodes = (
(66,378,l),
(307,378,l),
(327,540,l),
(66,540,l)
);
}
);
width = 353;
},
{
layerId = m002;
shapes = (
{
closed = 1;
nodes = (
(130,744,o),
(79,670,o),
(79,569,c),
(76,464,o),
(75,163,o),
(75,0,c),
(135,0,l),
(139,532,ls),
(139,555,o),
(131,687,o),
(236,687,cs),
(245,687,o),
(252,687,o),
(271,687,c),
(261,747,l),
(228,747,l)
);
},
{
closed = 1;
nodes = (
(82,480,l),
(249,480,l),
(250,540,l),
(82,540,l)
);
}
);
width = 292.5;
}
);
metricLeft = H;
metricRight = "=h/2";
},
{
glyphname = t.ss05;
kernLeft = "0";
kernRight = "0";
lastChange = "2026-02-11 03:36:53 +0000";
layers = (
{
layerId = m01;
shapes = (
{
closed = 1;
nodes = (
(336,-1.5,l),
(336,172.5,l),
(317,172.5,o),
(300,170.5,o),
(281,172.5,cs),
(243,176.5,o),
(219.5,190.5,o),
(219,243.5,cs),
(216,701,l),
(44,701,l),
(44,538,o),
(46,333.5,o),
(49,228.5,c),
(56,70.5,o),
(145,1.5,o),
(293,-1.5,c)
);
},
{
closed = 1;
nodes = (
(327,378,l),
(337,540,l),
(56,540,l),
(56,378,l)
);
}
);
width = 359;
},
{
layerId = m002;
shapes = (
{
closed = 1;
nodes = (
(271,0,l),
(271,60,l),
(252,60,o),
(245,60,o),
(236,60,cs),
(131,60,o),
(139,192,o),
(139,215,cs),
(135,702,l),
(75,702,l),
(75,539,o),
(76,283,o),
(79,178,c),
(79,77,o),
(130,3,o),
(228,0,c)
);
},
{
closed = 1;
nodes = (
(260,480,l),
(259,540,l),
(91,540,l),
(91,480,l)
);
}
);
width = 308.5;
}
);
metricLeft = H;
metricRight = "=H/2";
},
{
glyphname = f_f.liga;
lastChange = "2026-02-10 22:51:24 +0000";
layers = (
{
layerId = m01;
shapes = (
{
ref = f;
},
{
alignment = -1;
pos = (371,0);
ref = f;
},
{
closed = 1;
nodes = (
(238,379,l),
(564,379,l),
(584,541,l),
(238,541,l)
);
}
);
width = 765;
},
{
layerId = m002;
shapes = (
{
ref = f;
},
{
pos = (272,0);
ref = f;
},
{
closed = 1;
nodes = (
(140,479,l),
(383,479,l),
(384,539,l),
(140,539,l)
);
}
);
width = 596;
}
);
metricLeft = f;
metricRight = f;
},
{
glyphname = f_f_i.liga;
lastChange = "2026-02-11 03:12:55 +0000";
layers = (
{
layerId = m01;
shapes = (
{
ref = f_f.liga;
},
{
alignment = -1;
pos = (742,0);
ref = i;
},
{
closed = 1;
nodes = (
(638,379,l),
(959,379,l),
(959,541,l),
(638,541,l)
);
}
);
width = 1013;
},
{
layerId = m002;
shapes = (
{
ref = f_f.liga;
},
{
pos = (574,0);
ref = i;
},
{
closed = 1;
nodes = (
(472,479,l),
(715,479,l),
(716,539,l),
(472,539,l)
);
}
);
width = 817.75;
}
);
metricLeft = f;
metricRight = i;
},
{
glyphname = f_i.liga;
lastChange = "2026-02-11 03:13:35 +0000";
layers = (
{
layerId = m01;
shapes = (
{
ref = f;
},
{
pos = (411,0);
ref = i;
},
{
closed = 1;
nodes = (
(309,379,l),
(625,379,l),
(625,541,l),
(309,541,l)
);
}
);
width = 682;
},
{
layerId = m002;
shapes = (
{
ref = f;
},
{
pos = (312,0);
ref = i;
},
{
closed = 1;
nodes = (
(210,480,l),
(453,480,l),
(454,540,l),
(210,540,l)
);
}
);
width = 555.75;
}
);
metricLeft = f;
metricRight = i;
},
{
glyphname = f_j.liga;
lastChange = "2026-02-10 22:51:20 +0000";
layers = (
{
layerId = m01;
shapes = (
{
ref = f;
},
{
pos = (381,0);
ref = j;
},
{
closed = 1;
nodes = (
(28,379,l),
(655,379,l),
(675,541,l),
(28,541,l)
);
}
);
width = 735;
},
{
layerId = m002;
shapes = (
{
pos = (7.5,0);
ref = f;
},
{
pos = (279.5,0);
ref = j;
},
{
closed = 1;
nodes = (
(37.5,479,l),
(473.5,479,l),
(475.5,539,l),
(37.5,539,l)
);
}
);
width = 552.5;
}
);
metricLeft = f;
metricRight = j;
},
{
glyphname = f_t.liga;
lastChange = "2026-02-11 03:43:53 +0000";
layers = (
{
layerId = m01;
shapes = (
{
ref = f;
},
{
pos = (416,0);
ref = t;
},
{
closed = 1;
nodes = (
(223,379,l),
(549,379,l),
(569,541,l),
(223,541,l)
);
}
);
width = 820;
},
{
layerId = m002;
shapes = (
{
ref = f;
},
{
pos = (312,0);
ref = t;
},
{
closed = 1;
nodes = (
(140,479,l),
(383,479,l),
(384,539,l),
(140,539,l)
);
}
);
width = 614;
}
);
metricLeft = f;
metricRight = t;
},
{
glyphname = t_f.liga;
lastChange = "2026-02-11 03:14:59 +0000";
layers = (
{
layerId = m01;
shapes = (
{
ref = t;
},
{
pos = (404,0);
ref = f;
},
{
closed = 1;
nodes = (
(523.5,378,l),
(533.5,540,l),
(177.5,540,l),
(177.5,378,l)
);
}
);
width = 798;
},
{
layerId = m002;
shapes = (
{
ref = t;
},
{
pos = (302,0);
ref = f;
},
{
closed = 1;
nodes = (
(404,480,l),
(403,540,l),
(140,540,l),
(140,480,l)
);
}
);
width = 626;
}
);
metricLeft = t;
metricRight = f;
},
{
glyphname = t_t.liga;
lastChange = "2026-02-11 03:39:33 +0000";
layers = (
{
layerId = m01;
shapes = (
{
ref = t;
},
{
pos = (404,0);
ref = t;
},
{
closed = 1;
nodes = (
(523.5,378,l),
(533.5,540,l),
(177.5,540,l),
(177.5,378,l)
);
}
);
width = 794.5;
},
{
layerId = m002;
shapes = (
{
ref = t;
},
{
pos = (302,0);
ref = t;
},
{
closed = 1;
nodes = (
(404,480,l),
(403,540,l),
(140,540,l),
(140,480,l)
);
}
);
width = 608.5;
}
);
metricLeft = t;
metricRight = f;
},
{
glyphname = f_f.liga.ss05;
lastChange = "2026-02-11 03:41:45 +0000";
layers = (
{
layerId = m01;
shapes = (
{
ref = f.ss05;
},
{
pos = (353,0);
ref = f.ss05;
},
{
closed = 1;
nodes = (
(181,378,l),
(422,378,l),
(442,540,l),
(181,540,l)
);
}
);
width = 706;
},
{
layerId = m002;
shapes = (
{
ref = f.ss05;
},
{
pos = (267.5,0);
ref = f.ss05;
},
{
closed = 1;
nodes = (
(167,480,l),
(384,480,l),
(385,540,l),
(167,540,l)
);
}
);
width = 560;
}
);
metricLeft = f.ss05;
metricRight = f.ss05;
},
{
glyphname = f_f_i.liga.ss05;
lastChange = "2026-02-11 03:35:00 +0000";
layers = (
{
layerId = m01;
shapes = (
{
ref = f.ss05;
},
{
pos = (353,0);
ref = f.ss05;
},
{
pos = (706,0);
ref = i;
},
{
closed = 1;
nodes = (
(66,378,l),
(785,378,l),
(844.5,540,l),
(66,540,l)
);
}
);
width = 977;
},
{
layerId = m002;
shapes = (
{
ref = f.ss05;
},
{
pos = (267.5,0);
ref = f.ss05;
},
{
pos = (540,0);
ref = i;
},
{
closed = 1;
nodes = (
(82,480,l),
(668,480,l),
(671,540,l),
(82,540,l)
);
}
);
width = 784;
}
);
metricLeft = f.ss05;
metricRight = i;
},
{
glyphname = f_i.liga.ss05;
lastChange = "2026-02-11 03:34:45 +0000";
layers = (
{
layerId = m01;
shapes = (
{
ref = f.ss05;
},
{
pos = (353,0);
ref = i;
},
{
closed = 1;
nodes = (
(79,378,l),
(460,378,l),
(491.5,540,l),
(79,540,l)
);
}
);
width = 624;
},
{
layerId = m002;
shapes = (
{
ref = f.ss05;
},
{
pos = (272.5,0);
ref = i;
},
{
closed = 1;
nodes = (
(114,480,l),
(402,480,l),
(403.5,540,l),
(114,540,l)
);
}
);
width = 516.5;
}
);
metricLeft = f.ss05;
metricRight = i;
},
{
glyphname = f_j.liga.ss05;
lastChange = "2026-02-11 03:34:54 +0000";
layers = (
{
layerId = m01;
shapes = (
{
ref = f.ss05;
},
{
pos = (303,0);
ref = j;
},
{
closed = 1;
nodes = (
(79,378,l),
(460,378,l),
(491.5,540,l),
(79,540,l)
);
}
);
width = 657;
},
{
layerId = m002;
shapes = (
{
ref = f.ss05;
},
{
pos = (222.5,0);
ref = j;
},
{
closed = 1;
nodes = (
(114,480,l),
(402,480,l),
(403.5,540,l),
(114,540,l)
);
}
);
width = 495.5;
}
);
metricLeft = f.ss05;
metricRight = j;
},
{
glyphname = f_t.liga.ss05;
lastChange = "2026-02-11 03:42:02 +0000";
layers = (
{
layerId = m01;
shapes = (
{
ref = f.ss05;
},
{
pos = (353,0);
ref = t.ss05;
},
{
closed = 1;
nodes = (
(186,378,l),
(427,378,l),
(447,540,l),
(186,540,l)
);
}
);
width = 712;
},
{
layerId = m002;
shapes = (
{
ref = f.ss05;
},
{
pos = (267.5,0);
ref = t.ss05;
},
{
closed = 1;
nodes = (
(207,480,l),
(374,480,l),
(375,540,l),
(207,540,l)
);
}
);
width = 576;
}
);
metricLeft = f.ss05;
metricRight = t.ss05;
},
{
glyphname = t_f.liga.ss05;
kernLeft = t.ss05;
kernRight = f.ss05;
lastChange = "2026-02-11 03:43:36 +0000";
layers = (
{
layerId = m01;
shapes = (
{
alignment = -1;
ref = t.ss05;
},
{
alignment = -1;
pos = (353,0);
ref = f.ss05;
},
{
closed = 1;
nodes = (
(211,378,l),
(452,378,l),
(472,540,l),
(211,540,l)
);
}
);
width = 711;
},
{
layerId = m002;
shapes = (
{
alignment = -1;
ref = t.ss05;
},
{
alignment = -1;
pos = (267.5,0);
ref = f.ss05;
},
{
closed = 1;
nodes = (
(207,480,l),
(395.5,480,l),
(397,540,l),
(207,540,l)
);
}
);
width = 576;
}
);
metricLeft = f.ss05;
metricRight = t.ss05;
},
{
glyphname = t_t.liga.ss05;
kernLeft = t.ss05;
kernRight = f.ss05;
lastChange = "2026-02-11 03:43:46 +0000";
layers = (
{
layerId = m01;
shapes = (
{
alignment = -1;
ref = t.ss05;
},
{
alignment = -1;
pos = (353,0);
ref = t.ss05;
},
{
closed = 1;
nodes = (
(211,378,l),
(452,378,l),
(472,540,l),
(211,540,l)
);
}
);
width = 712;
},
{
layerId = m002;
shapes = (
{
alignment = -1;
ref = t.ss05;
},
{
alignment = -1;
pos = (267.5,0);
ref = t.ss05;
},
{
closed = 1;
nodes = (
(207,480,l),
(395.5,480,l),
(397,540,l),
(207,540,l)
);
}
);
width = 576;
}
);
metricLeft = t.ss05;
metricRight = t.ss05;
},
{
glyphname = zero;
kernLeft = zero;
kernRight = zero;
lastChange = "2026-02-11 10:39:17 +0000";
layers = (
{
layerId = m01;
shapes = (
{
closed = 1;
nodes = (
(422,-12,o),
(526,137,o),
(526,350,cs),
(526,563,o),
(422,712,o),
(274,712,cs),
(126,712,o),
(22,563,o),
(22,350,cs),
(22,137,o),
(126,-12,o),
(274,-12,cs)
);
},
{
closed = 1;
nodes = (
(228,162,o),
(196,240,o),
(196,350,c),
(196,460,o),
(228,538,o),
(274,538,cs),
(320,538,o),
(353,460,o),
(353,350,cs),
(353,240,o),
(320,162,o),
(274,162,cs)
);
}
);
width = 548;
},
{
layerId = m002;
shapes = (
{
closed = 1;
nodes = (
(437.5,-12,o),
(541.5,137,o),
(541.5,350,cs),
(541.5,563,o),
(437.5,712,o),
(289.5,712,cs),
(141.5,712,o),
(37.5,563,o),
(37.5,350,cs),
(37.5,137,o),
(141.5,-12,o),
(289.5,-12,cs)
);
},
{
closed = 1;
nodes = (
(176.5,48,o),
(98.5,173,o),
(98.5,350,c),
(98.5,527,o),
(176.5,652,o),
(289.5,652,cs),
(401.5,652,o),
(481.5,527,o),
(481.5,350,cs),
(481.5,173,o),
(401.5,48,o),
(289.5,48,cs)
);
}
);
width = 579;
}
);
metricLeft = "=H/2";
metricRight = "=H/2";
unicode = 48;
},
{
glyphname = one;
kernLeft = "1";
kernRight = "1";
lastChange = "2026-02-10 22:44:32 +0000";
layers = (
{
layerId = m01;
shapes = (
{
closed = 1;
nodes = (
(172,0,l),
(346,0,l),
(346,700,l),
(172,700,l)
);
},
{
closed = 1;
nodes = (
(44,409,l),
(87,409,o),
(129,428,o),
(172,469,c),
(172,700,l),
(129,637,o),
(87,603,o),
(44,600,c)
);
}
);
width = 390;
},
{
layerId = m002;
shapes = (
{
closed = 1;
nodes = (
(203,0,l),
(263,0,l),
(263,700,l),
(203,700,l)
);
},
{
closed = 1;
nodes = (
(75,541,l),
(118,541,o),
(160,560,o),
(203,601,c),
(203,700,l),
(160,637,o),
(118,603,o),
(75,600,c)
);
}
);
width = 338;
}
);
metricLeft = H;
metricRight = H;
unicode = 49;
},
{
glyphname = two;
kernLeft = "2";
kernRight = "2";
lastChange = "2026-02-14 11:23:39 +0000";
layers = (
{
layerId = m01;
shapes = (
{
closed = 1;
nodes = (
(218,412,l),
(218,434,ls),
(218,498,o),
(249,539,o),
(298,539,cs),
(351,539,o),
(371,486,o),
(335,432,cs),
(23,-37,l),
(3,0,l),
(262,0,l),
(530,0,l),
(530,174,l),
(357,174,l),
(497,386,ls),
(594,533,o),
(479,715,o),
(291,715,cs),
(116,715,o),
(44,560,o),
(44,415,cs),
(44,412,l)
);
}
);
width = 554;
},
{
layerId = m002;
shapes = (
{
closed = 1;
nodes = (
(135,452,l),
(135,474,ls),
(135,574,o),
(201,655,o),
(282,655,cs),
(394,655,o),
(449,532,o),
(382,432,cs),
(70,-37,l),
(50,0,l),
(236,0,l),
(504,0,l),
(504,60,l),
(206,60,l),
(424,386,ls),
(528,540,o),
(454,715,o),
(285,715,cs),
(154,715,o),
(75,617,o),
(75,455,cs),
(75,452,l)
);
}
);
width = 541.5;
}
);
metricLeft = H;
metricRight = "=H/2";
unicode = 50;
},
{
glyphname = three;
kernLeft = "0";
kernRight = "0";
lastChange = "2026-02-14 11:22:57 +0000";
layers = (
{
layerId = m01;
shapes = (
{
closed = 1;
nodes = (
(208,464,l),
(212,498,o),
(229,539,o),
(278,539,cs),
(380,539,o),
(350,425,o),
(295,425,c),
(274,348,l),
(297,273,l),
(350,273,o),
(380,160,o),
(278,160,cs),
(229,160,o),
(214,201,o),
(208,235,c),
(51,196,l),
(51,75,o),
(150,-20.5,o),
(291,-16,cs),
(467,-11,o),
(598,198,o),
(446,350,c),
(587,498,o),
(467,700,o),
(291,715,cs),
(150,727,o),
(44,617,o),
(44,496,c)
);
},
{
closed = 1;
nodes = (
(234,274,l),
(427,274,l),
(427,425,l),
(224,425,l)
);
}
);
width = 535;
},
{
layerId = m002;
shapes = (
{
closed = 1;
nodes = (
(134,520,l),
(134,595,o),
(192,651,o),
(267,648,cs),
(471,641,o),
(456,390,o),
(198,375,c),
(197,356,l),
(200,332,l),
(462,318,o),
(473,52,o),
(267,52,cs),
(195,52,o),
(130,107,o),
(137,179,c),
(76,170,l),
(76,66,o),
(161,-8,o),
(267,-8,cs),
(507,-8,o),
(541,278,o),
(331,355,c),
(541,435,o),
(507,702,o),
(267,707,cs),
(161,709,o),
(75,632,o),
(75,528,c)
);
},
{
closed = 1;
nodes = (
(196,332,l),
(302,332,l),
(302,375,l),
(195,375,l)
);
}
);
width = 507.25;
}
);
metricLeft = H;
metricRight = "=H/2";
unicode = 51;
},
{
glyphname = four;
kernLeft = "4";
kernRight = "4";
lastChange = "2026-02-14 11:31:40 +0000";
layers = (
{
layerId = m01;
shapes = (
{
closed = 1;
nodes = (
(341,0,l),
(515,0,l),
(515,470,l),
(341,470,l)
);
},
{
closed = 1;
nodes = (
(22,143,l),
(584,143,l),
(584,305,l),
(251,305,l),
(367,700,l),
(186,700,l)
);
}
);
width = 606;
},
{
layerId = m002;
shapes = (
{
closed = 1;
nodes = (
(287.5,0,l),
(347.5,0,l),
(347.5,470,l),
(287.5,470,l)
);
},
{
closed = 1;
nodes = (
(37.5,194,l),
(448.5,194,l),
(448.5,254,l),
(115.5,254,l),
(231.5,700,l),
(169.5,700,l)
);
}
);
width = 486;
}
);
metricLeft = "=H/2";
metricRight = "=H/2";
unicode = 52;
},
{
glyphname = five;
kernLeft = "5";
kernRight = "5";
lastChange = "2026-02-14 11:25:36 +0000";
layers = (
{
layerId = m01;
shapes = (
{
closed = 1;
nodes = (
(172,343,o),
(316,314,o),
(308,235,cs),
(298,140,o),
(156,145,o),
(83,192,c),
(44,46,l),
(85,12,o),
(156,-8,o),
(230,1,cs),
(360,16,o),
(455,113,o),
(456,233,cs),
(457,353,o),
(366,450,o),
(228,465,c),
(229,534,l),
(426,534,l),
(446,700,l),
(62,700,l),
(67,313,l)
);
}
);
width = 500;
},
{
layerId = m002;
shapes = (
{
closed = 1;
nodes = (
(251,411,o),
(386,348,o),
(380,212,cs),
(374,82,o),
(227,30,o),
(84,77,c),
(75,17,l),
(131,1,o),
(190,-5,o),
(224,-3,cs),
(333,2,o),
(434,86,o),
(440,211,cs),
(447,362,o),
(314,449,o),
(148,425,c),
(147,640,l),
(417,640,l),
(427,700,l),
(87,700,l),
(88,356,l)
);
}
);
width = 515.5;
}
);
metricLeft = H;
metricRight = H;
unicode = 53;
},
{
glyphname = six;
kernLeft = "6";
kernRight = "6";
lastChange = "2026-02-11 10:37:04 +0000";
layers = (
{
layerId = m01;
shapes = (
{
closed = 1;
nodes = (
(-49.5,183,o),
(93.5,14,o),
(236.5,-5,cs),
(400.5,-27,o),
(539.5,146,o),
(489.5,318,cs),
(459.5,419,o),
(376.5,486,o),
(281.5,475,c),
(397.5,700,l),
(210.5,700,l),
(164.5,597,o),
(114.5,521,o),
(61.5,411,cs)
);
},
{
closed = 1;
nodes = (
(224.5,155,o),
(188.5,195,o),
(188.5,239,cs),
(188.5,283,o),
(224.5,322,o),
(267.5,322,cs),
(308.5,322,o),
(346.5,283,o),
(346.5,239,cs),
(346.5,195,o),
(308.5,155,o),
(267.5,155,cs)
);
}
);
width = 522;
},
{
layerId = m002;
shapes = (
{
closed = 1;
nodes = (
(-21.5,234,o),
(48.5,19,o),
(228.5,-5,cs),
(396.5,-28,o),
(531.5,139,o),
(481.5,308,cs),
(446.5,428,o),
(305.5,504,o),
(198.5,461,c),
(336.5,700,l),
(266.5,700,l),
(197.5,576,o),
(159.5,512,o),
(93.5,411,cs)
);
},
{
closed = 1;
nodes = (
(173.5,53,o),
(94.5,139,o),
(94.5,236,cs),
(94.5,332,o),
(173.5,416,o),
(263.5,416,cs),
(351.5,416,o),
(431.5,330,o),
(431.5,236,cs),
(431.5,141,o),
(351.5,53,o),
(263.5,53,cs)
);
}
);
width = 529.5;
}
);
metricLeft = "=H/2";
metricRight = "=H/2";
unicode = 54;
},
{
glyphname = seven;
kernLeft = "7";
kernRight = "7";
lastChange = "2026-02-14 11:24:02 +0000";
layers = (
{
layerId = m01;
shapes = (
{
closed = 1;
nodes = (
(464,697,l),
(22,697,l),
(42,523,l),
(236,523,l),
(90,0,l),
(270,0,l)
);
}
);
width = 486;
},
{
layerId = m002;
shapes = (
{
closed = 1;
nodes = (
(399.5,697,l),
(37.5,697,l),
(47.5,637,l),
(320.5,637,l),
(144.5,0,l),
(205.5,0,l)
);
}
);
width = 437;
}
);
metricLeft = "=H/2";
metricRight = "=H/2";
unicode = 55;
},
{
color = 0;
glyphname = eight;
kernLeft = "8";
kernRight = "8";
lastChange = "2026-02-14 11:16:55 +0000";
layers = (
{
layerId = m01;
shapes = (
{
closed = 1;
nodes = (
(-42,512,o),
(104.5,360,c),
(-70.5,222,o),
(59.5,-11,o),
(247,-11,cs),
(434.5,-11,o),
(566,222,o),
(390.5,360,c),
(539.5,512,o),
(401,711.5,o),
(241.5,711.5,cs),
(82.5,711.5,o)
);
},
{
closed = 1;
nodes = (
(216.5,151.5,o),
(189.5,178.5,o),
(189.5,207,cs),
(189.5,235.5,o),
(216.5,261.5,o),
(247.5,261.5,cs),
(278,261.5,o),
(305,235.5,o),
(305,207,cs),
(305,178.5,o),
(278,151.5,o),
(247.5,151.5,cs)
);
},
{
closed = 1;
nodes = (
(216.5,453.5,o),
(192.5,478,o),
(192.5,506,cs),
(192.5,535,o),
(216.5,557.5,o),
(247,557.5,cs),
(276,557.5,o),
(301.5,535,o),
(301.5,506,cs),
(301.5,478,o),
(276,453.5,o),
(247,453.5,cs)
);
}
);
width = 495;
},
{
guides = (
{
pos = (414.5,267);
}
);
layerId = m002;
shapes = (
{
closed = 1;
nodes = (
(-29,450,o),
(160,370,c),
(-48,287,o),
(28.5,-6,o),
(239.5,-6,cs),
(447.5,-6,o),
(530,287,o),
(331,370,c),
(511.5,450,o),
(434,705,o),
(239.5,705,cs),
(47.5,705,o)
);
},
{
closed = 1;
nodes = (
(163.5,54,o),
(97.5,120.5,o),
(97.5,194,cs),
(97.5,267.5,o),
(163.5,333,o),
(240,333,cs),
(317,333,o),
(384.5,267.5,o),
(384.5,194,cs),
(384.5,120.5,o),
(317,54,o),
(239.5,54,cs)
);
},
{
closed = 1;
nodes = (
(170,403,o),
(111,459,o),
(111,525.5,cs),
(111,592,o),
(172.5,645,o),
(239.5,645,cs),
(311,645,o),
(372,592,o),
(372,525.5,cs),
(372,459,o),
(308.5,403,o),
(239,403,cs)
);
}
);
width = 481.5;
}
);
metricLeft = "=H/2";
metricRight = "=H/2";
unicode = 56;
},
{
glyphname = one.ss06;
kernLeft = "1";
kernRight = 1tab;
lastChange = "2026-02-11 10:44:17 +0000";
layers = (
{
layerId = m01;
shapes = (
{
closed = 1;
nodes = (
(172,0,l),
(346,0,l),
(346,700,l),
(172,700,l)
);
},
{
closed = 1;
nodes = (
(44,409,l),
(87,409,o),
(129,428,o),
(172,469,c),
(172,700,l),
(129,637,o),
(87,603,o),
(44,600,c)
);
},
{
closed = 1;
nodes = (
(44,0,l),
(441.5,0,l),
(441.5,174,l),
(44,174,l)
);
}
);
width = 463.5;
},
{
layerId = m002;
shapes = (
{
closed = 1;
nodes = (
(203,0,l),
(263,0,l),
(263,700,l),
(203,700,l)
);
},
{
closed = 1;
nodes = (
(75,541,l),
(118,541,o),
(160,560,o),
(203,601,c),
(203,700,l),
(160,637,o),
(118,603,o),
(75,600,c)
);
},
{
closed = 1;
nodes = (
(84,0,l),
(377,0,l),
(377,59.5,l),
(84,59.5,l)
);
}
);
width = 414.5;
}
);
metricLeft = H;
metricRight = "=H/2";
},
{
glyphname = period;
kernLeft = period;
kernRight = period;
lastChange = "2026-02-11 09:54:25 +0000";
layers = (
{
layerId = m01;
shapes = (
{
closed = 1;
nodes = (
(103,-15,ls),
(155,-15,o),
(184,13,o),
(184,66,cs),
(184,66,ls),
(184,119,o),
(155,147,o),
(103,147,cs),
(103,147,ls),
(51,147,o),
(22,119,o),
(22,66,cs),
(22,66,ls),
(22,13,o),
(51,-15,o),
(103,-15,cs)
);
}
);
width = 206;
},
{
layerId = m002;
shapes = (
{
closed = 1;
nodes = (
(78.5,-4,ls),
(105.5,-4,o),
(120.5,11,o),
(120.5,37,cs),
(120.5,37,ls),
(120.5,64,o),
(105.5,79,o),
(78.5,79,cs),
(78.5,79,ls),
(52.5,79,o),
(37.5,64,o),
(37.5,37,cs),
(37.5,37,ls),
(37.5,11,o),
(52.5,-4,o),
(78.5,-4,cs)
);
}
);
width = 158;
}
);
metricLeft = comma;
metricRight = comma;
unicode = 46;
},
{
glyphname = comma;
kernLeft = period;
kernRight = period;
lastChange = "2026-02-10 22:44:32 +0000";
layers = (
{
layerId = m01;
shapes = (
{
closed = 1;
nodes = (
(26,65,cs),
(26,15,o),
(51,1,o),
(79,-10,c),
(22,-120,l),
(104,-120,l),
(171,0,ls),
(177,11,o),
(188,39,o),
(188,65,c),
(188,65,l),
(188,107,o),
(159,146,o),
(107,146,c),
(107,146,l),
(55,146,o),
(26,118,o)
);
}
);
width = 210;
},
{
layerId = m002;
shapes = (
{
closed = 1;
nodes = (
(52.5,39,cs),
(52.5,27,o),
(57.5,14,o),
(67.5,0,c),
(37.5,-56,l),
(92.5,-56,l),
(125.5,5,ls),
(132.5,15,o),
(135.5,27,o),
(135.5,39,c),
(135.5,39,l),
(135.5,63,o),
(117.5,80,o),
(93.5,80,c),
(93.5,80,l),
(68.5,80,o),
(52.5,64,o)
);
}
);
width = 173;
}
);
metricLeft = "=H/2";
metricRight = "=H/2";
unicode = 44;
},
{
glyphname = exclam;
kernLeft = "0";
kernRight = "0";
lastChange = "2026-02-11 09:54:45 +0000";
layers = (
{
layerId = m01;
shapes = (
{
closed = 1;
nodes = (
(190,211,l),
(210,700,l),
(44,700,l),
(64,211,l)
);
},
{
pos = (24,0);
ref = period;
}
);
width = 254;
},
{
layerId = m002;
shapes = (
{
closed = 1;
nodes = (
(141.5,187,l),
(147.5,700,l),
(86.5,700,l),
(92.5,187,l)
);
},
{
pos = (37.5,0);
ref = period;
}
);
width = 233;
}
);
metricLeft = H;
metricRight = H;
unicode = 33;
},
{
glyphname = question;
kernLeft = question;
kernRight = question;
lastChange = "2026-02-12 00:19:53 +0000";
layers = (
{
layerId = m01;
shapes = (
{
closed = 1;
nodes = (
(153,460,l),
(171,529,o),
(212,557,o),
(247,557,cs),
(286,558,o),
(318,523,o),
(302,473,cs),
(275,389,o),
(161,388,o),
(161,221,c),
(161,211,l),
(161,203,l),
(313,203,l),
(313,211,l),
(310,280,o),
(374,314,o),
(410,359,cs),
(531,508,o),
(427,714,o),
(238,714,c),
(238,714,l),
(115,714,o),
(50,625,o),
(22,534,c)
);
},
{
pos = (139,0);
ref = period;
}
);
width = 476.5;
},
{
layerId = m002;
shapes = (
{
closed = 1;
nodes = (
(90.5,521.5,l),
(122,612,o),
(160.5,651,o),
(219,651,cs),
(326,651,o),
(377,525.5,o),
(306,436.5,cs),
(227,338,o),
(184,297,o),
(184,221,c),
(184,212,l),
(184,187,l),
(244,187,l),
(244,212,l),
(244,279.5,o),
(275,304,o),
(347,392.5,cs),
(458,529,o),
(380.5,714,o),
(215,714,c),
(215,714,l),
(136.5,714,o),
(60,641.5,o),
(37.5,545.5,c)
);
},
{
pos = (135.5,0);
ref = period;
}
);
width = 424;
}
);
metricLeft = "=H/2";
metricRight = "=H/3";
unicode = 63;
},
{
glyphname = periodcentered;
kernLeft = "0";
kernRight = "0";
lastChange = "2026-02-10 22:44:32 +0000";
layers = (
{
layerId = m01;
shapes = (
{
closed = 1;
nodes = (
(103,175,ls),
(155,175,o),
(184,203,o),
(184,256,cs),
(184,256,ls),
(184,309,o),
(155,337,o),
(103,337,cs),
(103,337,ls),
(51,337,o),
(22,309,o),
(22,256,cs),
(22,256,ls),
(22,203,o),
(51,175,o),
(103,175,cs)
);
}
);
width = 206;
},
{
layerId = m002;
shapes = (
{
closed = 1;
nodes = (
(66.5,227,ls),
(85.5,227,o),
(95.5,237,o),
(95.5,256,cs),
(95.5,256,ls),
(95.5,275,o),
(85.5,285,o),
(66.5,285,cs),
(66.5,285,ls),
(47.5,285,o),
(37.5,275,o),
(37.5,256,cs),
(37.5,256,ls),
(37.5,237,o),
(47.5,227,o),
(66.5,227,cs)
);
}
);
width = 133;
}
);
metricLeft = comma;
metricRight = comma;
unicode = 183;
},
{
glyphname = numbersign;
kernLeft = "0";
kernRight = "0";
lastChange = "2026-02-10 22:44:59 +0000";
layers = (
{
layerId = m01;
shapes = (
{
closed = 1;
nodes = (
(51,0,l),
(230,0,l),
(407,700,l),
(228,700,l)
);
},
{
closed = 1;
nodes = (
(308,0,l),
(487,0,l),
(664,700,l),
(485,700,l)
);
},
{
closed = 1;
nodes = (
(77,406,l),
(677,406,l),
(727,580,l),
(127,580,l)
);
},
{
closed = 1;
nodes = (
(17,160,l),
(617,160,l),
(667,334,l),
(67,334,l)
);
}
);
width = 739;
},
{
layerId = m002;
shapes = (
{
closed = 1;
nodes = (
(70,0,l),
(133,0,l),
(310,700,l),
(247,700,l)
);
},
{
closed = 1;
nodes = (
(300,0,l),
(363,0,l),
(540,700,l),
(477,700,l)
);
},
{
closed = 1;
nodes = (
(80,480,l),
(590,480,l),
(600,540,l),
(90,540,l)
);
},
{
closed = 1;
nodes = (
(20,160,l),
(530,160,l),
(540,220,l),
(30,220,l)
);
}
);
width = 618;
}
);
unicode = 35;
},
{
glyphname = slash;
kernLeft = "0";
kernRight = "0";
lastChange = "2026-02-10 22:44:32 +0000";
layers = (
{
layerId = m01;
shapes = (
{
closed = 1;
nodes = (
(-3,0,l),
(155,0,l),
(392,700,l),
(234,700,l)
);
}
);
width = 389;
},
{
layerId = m002;
shapes = (
{
closed = 1;
nodes = (
(10,0,l),
(73,0,l),
(310,700,l),
(247,700,l)
);
}
);
width = 320;
}
);
unicode = 47;
},
{
glyphname = hyphen;
kernLeft = "0";
kernRight = "0";
lastChange = "2026-02-10 22:44:32 +0000";
layers = (
{
layerId = m01;
shapes = (
{
closed = 1;
nodes = (
(44,195,l),
(350,195,l),
(350,329,l),
(44,329,l)
);
}
);
width = 394;
},
{
layerId = m002;
shapes = (
{
closed = 1;
nodes = (
(75,232,l),
(381,232,l),
(381,292,l),
(75,292,l)
);
}
);
width = 456;
}
);
metricLeft = H;
metricRight = H;
unicode = 45;
},
{
glyphname = parenleft;
kernLeft = "0";
kernRight = "0";
lastChange = "2026-02-10 22:44:32 +0000";
layers = (
{
layerId = m01;
shapes = (
{
closed = 1;
nodes = (
(121,681,o),
(44,505,o),
(44,324,cs),
(44,143,o),
(121,-33,o),
(146,-91,c),
(335,-91,l),
(309,-33,o),
(218,143,o),
(218,324,cs),
(218,505,o),
(309,681,o),
(335,739,c),
(146,739,l)
);
}
);
width = 357;
},
{
layerId = m002;
shapes = (
{
closed = 1;
nodes = (
(152,681,o),
(75,505,o),
(75,324,cs),
(75,143,o),
(152,-33,o),
(177,-91,c),
(252,-91,l),
(226,-33,o),
(135,143,o),
(135,324,cs),
(135,505,o),
(226,681,o),
(252,739,c),
(177,739,l)
);
}
);
width = 289.5;
}
);
metricLeft = H;
metricRight = "=H/2";
unicode = 40;
},
{
glyphname = braceleft;
kernLeft = "0";
kernRight = "0";
lastChange = "2026-02-10 22:44:32 +0000";
layers = (
{
layerId = m01;
shapes = (
{
closed = 1;
nodes = (
(122,486,l),
(122,373,o),
(22,361,o),
(22,328,c),
(22,294,o),
(122,281,o),
(122,167,c),
(122,8,ls),
(122,-57,o),
(157,-92,o),
(222,-92,cs),
(425,-92,l),
(425,62,l),
(296,62,l),
(296,166,l),
(294,291,o),
(192,315,o),
(196,329,c),
(208,351,o),
(300,371,o),
(296,486,c),
(296,585,l),
(425,585,l),
(425,739,l),
(222,739,ls),
(157,739,o),
(122,704,o),
(122,639,cs)
);
}
);
width = 466;
},
{
layerId = m002;
shapes = (
{
closed = 1;
nodes = (
(127.5,487,l),
(127.5,384,o),
(37.5,362,o),
(37.5,329,c),
(37.5,294,o),
(127.5,271,o),
(127.5,167,c),
(127.5,8,ls),
(127.5,-57,o),
(162.5,-92,o),
(227.5,-92,cs),
(340.5,-92,l),
(340.5,-32,l),
(187.5,-32,l),
(187.5,166,l),
(195.5,286,o),
(107.5,317,o),
(97.5,330,c),
(101.5,329,o),
(190.5,360,o),
(187.5,487,c),
(187.5,679,l),
(340.5,679,l),
(340.5,739,l),
(227.5,739,ls),
(162.5,739,o),
(127.5,704,o),
(127.5,639,cs)
);
}
);
width = 373.5;
}
);
metricLeft = "=bracketleft/2";
metricRight = bracketleft;
unicode = 123;
},
{
glyphname = bracketleft;
kernLeft = "0";
kernRight = "0";
lastChange = "2026-02-10 22:44:32 +0000";
layers = (
{
layerId = m01;
shapes = (
{
closed = 1;
nodes = (
(44,-91,l),
(218,-91,l),
(218,739,l),
(44,739,l)
);
},
{
closed = 1;
nodes = (
(44,585,l),
(347,585,l),
(347,739,l),
(44,739,l)
);
},
{
closed = 1;
nodes = (
(44,-92,l),
(347,-92,l),
(347,62,l),
(44,62,l)
);
}
);
width = 388;
},
{
layerId = m002;
shapes = (
{
closed = 1;
nodes = (
(75,-91,l),
(135,-91,l),
(135,739,l),
(75,739,l)
);
},
{
closed = 1;
nodes = (
(75,679,l),
(264,679,l),
(264,739,l),
(75,739,l)
);
},
{
closed = 1;
nodes = (
(75,-92,l),
(264,-92,l),
(264,-32,l),
(75,-32,l)
);
}
);
width = 297;
}
);
metricLeft = H;
unicode = 91;
},
{
glyphname = guilsinglleft;
kernLeft = "0";
kernRight = "0";
lastChange = "2026-02-10 22:44:32 +0000";
layers = (
{
layerId = m01;
shapes = (
{
closed = 1;
nodes = (
(391,93,l),
(168,323,l),
(168,221,l),
(391,451,l),
(279,553,l),
(10,272,l),
(279,-9,l)
);
}
);
width = 421;
},
{
layerId = m002;
shapes = (
{
closed = 1;
nodes = (
(340,32,l),
(73,311,l),
(73,233,l),
(339,511,l),
(295,553,l),
(26,272,l),
(295,-9,l)
);
}
);
width = 379;
}
);
unicode = 8249;
},
{
glyphname = quotedbl;
kernLeft = "0";
kernRight = "0";
lastChange = "2026-02-10 22:44:32 +0000";
layers = (
{
layerId = m01;
shapes = (
{
closed = 1;
nodes = (
(58,706,o),
(22,670,o),
(22,625,cs),
(22,595,o),
(48,512,o),
(80,440,c),
(134,440,l),
(162,506,o),
(184,588,o),
(184,625,c),
(184,625,l),
(184,670,o),
(148,706,o),
(103,706,c),
(103,706,l)
);
},
{
closed = 1;
nodes = (
(268,706,o),
(232,670,o),
(232,625,cs),
(232,595,o),
(258,512,o),
(290,440,c),
(344,440,l),
(372,506,o),
(394,588,o),
(394,625,c),
(394,625,l),
(394,670,o),
(358,706,o),
(313,706,c),
(313,706,l)
);
}
);
width = 416;
},
{
layerId = m002;
shapes = (
{
closed = 1;
nodes = (
(55.5,716,o),
(37.5,698,o),
(37.5,675,cs),
(37.5,660,o),
(50.5,618,o),
(66.5,582,c),
(93.5,582,l),
(107.5,615,o),
(118.5,656,o),
(118.5,675,c),
(118.5,675,l),
(118.5,698,o),
(100.5,716,o),
(78.5,716,c),
(78.5,716,l)
);
},
{
closed = 1;
nodes = (
(176.5,716,o),
(158.5,698,o),
(158.5,675,cs),
(158.5,660,o),
(171.5,618,o),
(187.5,582,c),
(214.5,582,l),
(228.5,615,o),
(239.5,656,o),
(239.5,675,c),
(239.5,675,l),
(239.5,698,o),
(221.5,716,o),
(199.5,716,c),
(199.5,716,l)
);
}
);
width = 277;
}
);
metricLeft = comma;
metricRight = comma;
unicode = 34;
},
{
glyphname = at;
lastChange = "2026-02-10 22:44:32 +0000";
layers = (
{
layerId = m01;
shapes = (
{
closed = 1;
nodes = (
(735,-6,o),
(803,15,o),
(847,107,cs),
(866,147,o),
(877,206,o),
(877,279,cs),
(877,527,o),
(693,728,o),
(467,728,cs),
(242,728,o),
(58,527,o),
(58,279,cs),
(58,31,o),
(242,-169,o),
(467,-169,cs),
(547,-169,o),
(608,-143,o),
(677,-104,c),
(619,0,l),
(558,-36,o),
(519,-51,o),
(467,-51,cs),
(304,-51,o),
(171,98,o),
(171,279,cs),
(171,461,o),
(305,610,o),
(467,610,cs),
(630,610,o),
(764,461,o),
(764,279,cs),
(764,225,o),
(765,195,o),
(749,163,cs),
(738,141,o),
(724,126,o),
(697,128,cs),
(676,129,o),
(662,169,o),
(662,236,cs),
(662,301,o),
(664,212.5,o),
(664,490,c),
(531,490,l),
(531,441,o),
(531,437,o),
(536,426,c),
(508,475,o),
(469,502,o),
(426,502,cs),
(332,502,o),
(251,394,o),
(251,269,cs),
(251,145,o),
(332,39,o),
(426,39,cs),
(496,39,o),
(528,69,o),
(534,141,c),
(534,87,o),
(583,26,o),
(651,12,cs)
);
},
{
closed = 1;
nodes = (
(426,213,o),
(406,236,o),
(406,270,cs),
(406,303,o),
(426,327,o),
(455,327,c),
(483,327,o),
(502,304,o),
(502,270,cs),
(502,236,o),
(483,213,o),
(455,213,cs)
);
}
);
width = 934;
},
{
layerId = m002;
shapes = (
{
closed = 1;
nodes = (
(712,20,o),
(792,44,o),
(825,117,cs),
(844,155,o),
(854,210,o),
(854,279,cs),
(854,512,o),
(681,702,o),
(468,702,cs),
(256,702,o),
(83,512,o),
(83,279,cs),
(83,46,o),
(256,-143,o),
(468,-143,cs),
(550,-143,o),
(628,-115,o),
(694,-63,c),
(658,-16,l),
(602,-61,o),
(537,-84,o),
(468,-84,cs),
(289,-84,o),
(143,80,o),
(143,279,cs),
(143,479,o),
(290,643,o),
(468,643,cs),
(647,643,o),
(794,479,o),
(794,279,cs),
(794,208,o),
(788,175,o),
(770,146,cs),
(752,115,o),
(719,100,o),
(693,113,cs),
(676,121,o),
(663,140,o),
(663,155,cs),
(664,277,o),
(664,368,o),
(665,490,c),
(605,490,l),
(605,443,o),
(605,438,o),
(612,426,c),
(576,475,o),
(523,502,o),
(466,502,cs),
(341,502,o),
(252,405,o),
(252,269,cs),
(252,134,o),
(341,39,o),
(466,39,cs),
(528,39,o),
(580,76,o),
(610,141,c),
(602,121,o),
(621,75,o),
(643,62,cs)
);
},
{
closed = 1;
nodes = (
(373,99,o),
(311,169,o),
(311,269,cs),
(311,369,o),
(373,441,o),
(459,441,cs),
(542,441,o),
(599,371,o),
(599,269,cs),
(599,169,o),
(541,99,o),
(459,99,cs)
);
}
);
width = 935;
}
);
unicode = 64;
},
{
color = 0;
glyphname = ampersand;
lastChange = "2026-02-14 07:06:13 +0000";
layers = (
{
layerId = m01;
shapes = (
{
closed = 1;
nodes = (
(425.5,738.5,o),
(277,728,cs),
(138.5,718,o),
(44.5,529.5,o),
(172.5,405,c),
(-93,242.5,o),
(39,11.5,o),
(213.5,-8,cs),
(309,-18.5,o),
(385,40.5,o),
(413,84.5,c),
(461,0.5,l),
(635.5,0.5,l),
(514.5,200,l),
(529,215,o),
(564,271.5,o),
(570,309.5,c),
(463,403,l),
(452.5,374,o),
(441,342.5,o),
(425.5,322.5,c),
(391,381.5,l),
(564,545,o)
);
},
{
closed = 1;
nodes = (
(195,254.5,o),
(250.5,276,c),
(315.5,192,l),
(295,160,o),
(232,140.5,o),
(202,173.5,cs),
(167.5,211,o)
);
},
{
closed = 1;
nodes = (
(247.5,564.5,o),
(274,578,cs),
(298,591,o),
(323.5,576,o),
(327,547.5,cs),
(330.5,522.5,o),
(313,505.5,o),
(288,508.5,cs),
(257.5,513,o)
);
}
);
width = 657.5;
},
{
layerId = m002;
shapes = (
{
closed = 1;
nodes = (
(414.5,755,o),
(240,728,cs),
(105,707.5,o),
(73,533,o),
(183.5,416.5,c),
(-86.5,239.5,o),
(29,-67,o),
(322,5,cs),
(367.5,16.5,o),
(397,32,o),
(445,68,c),
(497.5,0.5,l),
(574.5,0.5,l),
(488,113.5,l),
(514,145.5,o),
(534.5,179,o),
(547.5,212.5,c),
(497.5,251,l),
(487,218,o),
(470.5,187.5,o),
(448,158.5,c),
(273,391.5,l),
(486,526,o)
);
},
{
closed = 1;
nodes = (
(90.5,278.5,o),
(216.5,362.5,c),
(409.5,108.5,l),
(316,44.5,o),
(189,34.5,o),
(131.5,87,cs),
(53.5,158,o)
);
},
{
closed = 1;
nodes = (
(159,631,o),
(229.5,662.5,cs),
(287,688,o),
(347.5,646.5,o),
(347.5,581.5,cs),
(347.5,504,o),
(248,447,o),
(244.5,450.5,cs),
(166.5,528.5,o)
);
}
);
width = 605.5;
}
);
metricLeft = O;
metricRight = O;
unicode = 38;
},
{
color = 0;
glyphname = copyright;
lastChange = "2026-02-14 11:29:59 +0000";
layers = (
{
layerId = m01;
shapes = (
{
alignment = -1;
pos = (218,105);
ref = c;
scale = (0.9069,0.9069);
},
{
closed = 1;
nodes = (
(728,-105.5,o),
(932,99,o),
(932,349.5,cs),
(932,600.5,o),
(728,804.5,o),
(477,804.5,cs),
(226,804.5,o),
(22,600.5,o),
(22,349.5,cs),
(22,99,o),
(226,-105.5,o),
(477,-105.5,cs)
);
},
{
closed = 1;
nodes = (
(291.5,6,o),
(140,160,o),
(140,349.5,cs),
(140,539.5,o),
(291.5,693.5,o),
(477,693.5,cs),
(662.5,693.5,o),
(814,539.5,o),
(814,349.5,cs),
(814,160,o),
(662.5,6,o),
(477,6,cs)
);
}
);
width = 954;
},
{
layerId = m002;
shapes = (
{
alignment = -1;
pos = (137.5,80);
ref = c;
},
{
closed = 1;
nodes = (
(647,-47.5,o),
(825,131,o),
(825,349.5,cs),
(825,568.5,o),
(647,746.5,o),
(428,746.5,cs),
(209,746.5,o),
(31,568.5,o),
(31,349.5,cs),
(31,131,o),
(209,-47.5,o),
(428,-47.5,cs)
);
},
{
closed = 1;
nodes = (
(242.5,6,o),
(91,160,o),
(91,349.5,cs),
(91,539.5,o),
(242.5,693.5,o),
(428,693.5,cs),
(613.5,693.5,o),
(765,539.5,o),
(765,349.5,cs),
(765,160,o),
(613.5,6,o),
(428,6,cs)
);
}
);
width = 856;
}
);
metricLeft = O;
metricRight = O;
unicode = 169;
},
{
color = 0;
glyphname = degree;
lastChange = "2026-02-14 11:27:49 +0000";
layers = (
{
layerId = m01;
shapes = (
{
closed = 1;
nodes = (
(243.5,407.5,o),
(307.5,475,o),
(307.5,557.5,cs),
(307.5,640.5,o),
(243.5,707.5,o),
(165,707.5,cs),
(86,707.5,o),
(22,640.5,o),
(22,557.5,cs),
(22,475,o),
(86,407.5,o),
(165,407.5,cs)
);
},
{
closed = 1;
nodes = (
(144,516.5,o),
(127,535.5,o),
(127,557.5,cs),
(127,580,o),
(144,597.5,o),
(165,597.5,c),
(185.5,597.5,o),
(202,580,o),
(202,557.5,cs),
(202,535.5,o),
(185.5,516.5,o),
(165,516.5,cs)
);
}
);
width = 329.5;
},
{
layerId = m002;
shapes = (
{
closed = 1;
nodes = (
(216.5,462.5,o),
(269,516.5,o),
(269,583.5,cs),
(269,650.5,o),
(216.5,705,o),
(153,705,cs),
(89,705,o),
(37.5,650.5,o),
(37.5,583.5,cs),
(37.5,516.5,o),
(89,462.5,o),
(153,462.5,cs)
);
},
{
closed = 1;
nodes = (
(121.5,521,o),
(97,549,o),
(97,584,cs),
(97,618,o),
(121.5,645.5,o),
(153,645.5,c),
(184,645.5,o),
(209,618,o),
(209,584,cs),
(209,549,o),
(184,521,o),
(153,521,cs)
);
}
);
width = 306.5;
}
);
metricLeft = comma;
metricRight = comma;
unicode = 176;
},
{
glyphname = euro;
kernLeft = "0";
kernRight = "0";
lastChange = "2026-02-10 22:44:32 +0000";
layers = (
{
layerId = m01;
shapes = (
{
closed = 1;
nodes = (
(22,378,l),
(620,378,l),
(620,469,l),
(22,469,l)
);
},
{
pos = (77,0);
ref = C;
},
{
closed = 1;
nodes = (
(22,238,l),
(620,238,l),
(620,329,l),
(22,329,l)
);
}
);
width = 642;
},
{
layerId = m002;
shapes = (
{
closed = 1;
nodes = (
(31,384,l),
(589,384,l),
(589,444,l),
(31,444,l)
);
},
{
pos = (66,0);
ref = C;
},
{
closed = 1;
nodes = (
(31,264,l),
(589,264,l),
(589,324,l),
(31,324,l)
);
}
);
width = 620;
}
);
metricLeft = O;
metricRight = O;
unicode = 8364;
},
{
glyphname = sterling;
kernLeft = "0";
kernRight = "0";
lastChange = "2026-02-10 22:44:32 +0000";
layers = (
{
layerId = m01;
shapes = (
{
closed = 1;
nodes = (
(142,253,o),
(132,127,o),
(22,0,c),
(196,0,l),
(306,129,o),
(316,259,o),
(316,388,cs),
(316,486,o),
(369,538,o),
(466,538,cs),
(499,538,l),
(519,700,l),
(462,700,ls),
(254,700,o),
(142,588,o),
(142,380,cs)
);
},
{
closed = 1;
nodes = (
(496,0,l),
(516,162,l),
(180,162,l),
(180,0,l)
);
},
{
closed = 1;
nodes = (
(22,293,l),
(510,293,l),
(520,384,l),
(42,384,l)
);
}
);
width = 564;
},
{
layerId = m002;
shapes = (
{
closed = 1;
nodes = (
(151,253,o),
(141,127,o),
(31,0,c),
(89,0,l),
(199,129,o),
(209,259,o),
(209,388,cs),
(209,527,o),
(301,640,o),
(446,640,cs),
(469,640,l),
(479,700,l),
(471,700,ls),
(263,700,o),
(151,588,o),
(151,380,cs)
);
},
{
closed = 1;
nodes = (
(469,0,l),
(479,60,l),
(89,60,l),
(89,0,l)
);
},
{
closed = 1;
nodes = (
(41,309,l),
(469,309,l),
(479,369,l),
(51,369,l)
);
}
);
width = 554;
}
);
metricLeft = O;
metricRight = H;
unicode = 163;
},
{
glyphname = yen;
kernLeft = "0";
kernRight = "0";
lastChange = "2026-02-10 22:44:32 +0000";
layers = (
{
layerId = m01;
shapes = (
{
ref = Y;
},
{
closed = 1;
nodes = (
(63.5,288,l),
(489.5,288,l),
(489.5,379,l),
(63.5,379,l)
);
},
{
closed = 1;
nodes = (
(63.5,148,l),
(489.5,148,l),
(489.5,239,l),
(63.5,239,l)
);
}
);
width = 552;
},
{
layerId = m002;
shapes = (
{
pos = (1,0);
ref = Y;
},
{
closed = 1;
nodes = (
(5,304,l),
(401,304,l),
(401,364,l),
(5,364,l)
);
},
{
closed = 1;
nodes = (
(5,184,l),
(401,184,l),
(401,244,l),
(5,244,l)
);
}
);
width = 436;
}
);
metricLeft = Y;
metricRight = Y;
unicode = 165;
},
{
glyphname = notequal;
kernLeft = "0";
kernRight = "0";
lastChange = "2026-02-10 22:44:32 +0000";
layers = (
{
layerId = m01;
shapes = (
{
ref = equal;
},
{
closed = 1;
nodes = (
(110,0,l),
(290,0,l),
(437,540,l),
(257,540,l)
);
}
);
width = 547;
},
{
layerId = m002;
shapes = (
{
ref = equal;
},
{
closed = 1;
nodes = (
(199.5,0,l),
(262.5,0,l),
(409.5,540,l),
(346.5,540,l)
);
}
);
width = 609;
}
);
metricLeft = H;
metricRight = H;
unicode = 8800;
},
{
glyphname = asciitilde;
lastChange = "2026-02-10 22:44:32 +0000";
layers = (
{
layerId = m01;
shapes = (
{
closed = 1;
nodes = (
(44,175,l),
(82,198,o),
(125,245,o),
(189,245,cs),
(227,245,o),
(279,145,o),
(369,145,cs),
(433,145,o),
(465,182,o),
(503,215,c),
(503,349,l),
(465,316,o),
(433,279,o),
(369,279,cs),
(322,279,o),
(264,379,o),
(189,379,cs),
(125,379,o),
(82,332,o),
(44,309,c)
);
}
);
width = 547;
},
{
layerId = m002;
shapes = (
{
closed = 1;
nodes = (
(75,209,l),
(113,232,o),
(156,289,o),
(220,289,cs),
(266,289,o),
(323,189,o),
(400,189,cs),
(464,189,o),
(496,216,o),
(534,249,c),
(534,319,l),
(496,286,o),
(464,249,o),
(400,249,cs),
(353,249,o),
(295,349,o),
(220,349,cs),
(156,349,o),
(113,302,o),
(75,279,c)
);
}
);
width = 609;
}
);
metricLeft = H;
metricRight = H;
unicode = 126;
},
{
glyphname = asciicircum;
lastChange = "2026-02-10 22:44:32 +0000";
layers = (
{
layerId = m01;
shapes = (
{
closed = 1;
nodes = (
(159,332,l),
(339,545,l),
(237,545,l),
(417,332,l),
(529,434,l),
(258,737,l),
(318,737,l),
(47,434,l)
);
}
);
width = 576;
},
{
layerId = m002;
shapes = (
{
closed = 1;
nodes = (
(119,460,l),
(283,644,l),
(217,645,l),
(382,460,l),
(424,502,l),
(228,721,l),
(272,721,l),
(76,502,l)
);
}
);
width = 500;
}
);
unicode = 94;
},
{
glyphname = percent;
lastChange = "2026-02-10 22:44:32 +0000";
layers = (
{
layerId = m01;
shapes = (
{
closed = 1;
nodes = (
(179,0,l),
(372,0,l),
(709,700,l),
(516,700,l)
);
},
{
closed = 1;
nodes = (
(791,-1,o),
(868,80,o),
(868,179,cs),
(868,278,o),
(791,358,o),
(697,358,cs),
(602,358,o),
(525,278,o),
(525,179,cs),
(525,80,o),
(602,-1,o),
(697,-1,cs)
);
},
{
closed = 1;
nodes = (
(678,143,o),
(663,159,o),
(663,179,cs),
(663,198,o),
(678,214,o),
(697,214,c),
(715,214,o),
(730,198,o),
(730,179,cs),
(730,159,o),
(715,143,o),
(697,143,cs)
);
},
{
closed = 1;
nodes = (
(288,346,o),
(365,427,o),
(365,526,cs),
(365,625,o),
(288,705,o),
(194,705,cs),
(99,705,o),
(22,625,o),
(22,526,cs),
(22,427,o),
(99,346,o),
(194,346,cs)
);
},
{
closed = 1;
nodes = (
(175,490,o),
(160,506,o),
(160,526,cs),
(160,545,o),
(175,561,o),
(194,561,c),
(212,561,o),
(227,545,o),
(227,526,cs),
(227,506,o),
(212,490,o),
(194,490,cs)
);
}
);
width = 890;
},
{
layerId = m002;
shapes = (
{
closed = 1;
nodes = (
(132.5,0,l),
(198.5,0,l),
(535.5,700,l),
(469.5,700,l)
);
},
{
closed = 1;
nodes = (
(575.5,-1,o),
(638.5,65,o),
(638.5,145,cs),
(638.5,226,o),
(575.5,291,o),
(499.5,291,cs),
(422.5,291,o),
(359.5,226,o),
(359.5,145,cs),
(359.5,65,o),
(422.5,-1,o),
(499.5,-1,cs)
);
},
{
closed = 1;
nodes = (
(454.5,61,o),
(419.5,98,o),
(419.5,146,cs),
(419.5,192,o),
(454.5,229,o),
(500.5,229,c),
(543.5,229,o),
(578.5,192,o),
(578.5,146,cs),
(578.5,98,o),
(543.5,61,o),
(500.5,61,cs)
);
},
{
closed = 1;
nodes = (
(251.5,417,o),
(313.5,482,o),
(313.5,561,cs),
(313.5,641,o),
(251.5,705,o),
(176.5,705,cs),
(99.5,705,o),
(37.5,641,o),
(37.5,561,cs),
(37.5,482,o),
(99.5,417,o),
(176.5,417,cs)
);
},
{
closed = 1;
nodes = (
(131.5,478,o),
(98.5,514,o),
(98.5,562,cs),
(98.5,608,o),
(131.5,644,o),
(176.5,644,c),
(219.5,644,o),
(253.5,608,o),
(253.5,562,cs),
(253.5,514,o),
(219.5,478,o),
(176.5,478,cs)
);
}
);
width = 676;
}
);
metricLeft = "=H/2";
metricRight = "=H/2";
unicode = 37;
},
{
glyphname = rightArrow;
kernLeft = "0";
kernRight = "0";
lastChange = "2026-02-10 22:44:32 +0000";
layers = (
{
layerId = m01;
shapes = (
{
closed = 1;
nodes = (
(693,272,l),
(424,553,l),
(321,442,l),
(545,232,l)
);
},
{
pos = (3,10);
ref = endash;
},
{
closed = 1;
nodes = (
(693,272,l),
(545,312,l),
(321,102,l),
(424,-9,l)
);
}
);
width = 727;
},
{
layerId = m002;
shapes = (
{
closed = 1;
nodes = (
(572,272,l),
(323,503,l),
(290,452,l),
(484,272,l)
);
},
{
pos = (-23,10);
ref = endash;
},
{
closed = 1;
nodes = (
(572,272,l),
(484,272,l),
(290,92,l),
(323,41,l)
);
}
);
width = 629;
}
);
unicode = 8594;
},
{
glyphname = acute;
lastChange = "2026-02-10 22:44:32 +0000";
layers = (
{
layerId = m01;
shapes = (
{
closed = 1;
nodes = (
(90,754,l),
(180,754,l),
(270,920,l),
(130,920,l)
);
}
);
width = 300;
},
{
layerId = m002;
shapes = (
{
closed = 1;
nodes = (
(100,744,l),
(140,744,l),
(210,870,l),
(150,870,l)
);
}
);
width = 300;
}
);
unicode = 180;
},
{
glyphname = caron;
lastChange = "2026-02-10 22:44:32 +0000";
layers = (
{
layerId = m01;
shapes = (
{
closed = 1;
nodes = (
(150,837,l),
(105,920,l),
(-5,920,l),
(95,754,l),
(205,754,l),
(305,920,l),
(195,920,l)
);
}
);
width = 300;
},
{
layerId = m002;
shapes = (
{
closed = 1;
nodes = (
(150,837,l),
(105,920,l),
(35,920,l),
(135,754,l),
(165,754,l),
(265,920,l),
(195,920,l)
);
}
);
width = 300;
}
);
unicode = 711;
},
{
glyphname = AAngle;
kernLeft = "0";
kernRight = "0";
lastChange = "2026-02-10 22:44:32 +0000";
layers = (
{
layerId = m01;
shapes = (
{
closed = 1;
nodes = (
(-4,0,l),
(170,0,l),
(355,512,l),
(321,512,l),
(506,0,l),
(680,0,l),
(440,700,l),
(410,700,l),
(266,700,l),
(236,700,l)
);
}
);
width = 677;
},
{
layerId = m002;
shapes = (
{
closed = 1;
nodes = (
(8,0,l),
(72,0,l),
(291,612,l),
(257,612,l),
(477,0,l),
(541,0,l),
(291,700,l),
(286,700,l),
(267,700,l),
(262,700,l)
);
}
);
width = 550;
}
);
},
{
glyphname = Currency;
kernLeft = "0";
kernRight = "0";
lastChange = "2026-02-10 22:44:32 +0000";
layers = (
{
layerId = m01;
shapes = (
{
closed = 1;
nodes = (
(35,616,l),
(115,616,l),
(115,759,l),
(35,759,l)
);
},
{
closed = 1;
nodes = (
(35,-64,l),
(115,-64,l),
(115,79,l),
(35,79,l)
);
}
);
width = 150;
},
{
layerId = m002;
shapes = (
{
closed = 1;
nodes = (
(54,646,l),
(114,646,l),
(114,759,l),
(54,759,l)
);
},
{
closed = 1;
nodes = (
(54,-64,l),
(114,-64,l),
(114,49,l),
(54,49,l)
);
}
);
width = 167;
}
);
},
